<?xml version="1.0" encoding="UTF-8"?>
<svg version="1.1" xmlns="http://www.w3.org/2000/svg" width="1024" height="1024">
<path d="M0 0 C337.92 0 675.84 0 1024 0 C1024 337.92 1024 675.84 1024 1024 C686.08 1024 348.16 1024 0 1024 C0 686.08 0 348.16 0 0 Z " fill="#FDFEFE" transform="translate(0,0)"/>
<path d="M0 0 C1.81975482 5.12839994 -0.1400901 9.17684382 -2 14 C-1.34 13.67 -0.68 13.34 0 13 C1.87379605 12.92966231 3.75001102 12.9156978 5.625 12.9375 C7.12933594 12.95103516 7.12933594 12.95103516 8.6640625 12.96484375 C9.43492187 12.97644531 10.20578125 12.98804688 11 13 C10.39309597 17.93154003 9.40104508 22.49464356 7.99609375 27.27734375 C7.79452164 27.96518448 7.59294952 28.65302521 7.38526917 29.36170959 C6.956407 30.82053518 6.52512263 32.27865063 6.09155273 33.73608398 C5.45726838 35.87096343 4.83246956 38.00843007 4.20898438 40.14648438 C1.71675942 48.62229011 -0.98405269 57.01206416 -3.80859375 65.3828125 C-8.33432138 78.81284953 -12.42658568 92.36470549 -16.5 105.9375 C-21.83309847 123.68091522 -27.28732801 141.37473183 -33 159 C-32.34 159 -31.68 159 -31 159 C-30.72542969 158.401875 -30.45085937 157.80375 -30.16796875 157.1875 C-29.04945978 155.0926337 -27.9374156 153.70950024 -26.3125 152 C-19.68386908 144.4498277 -15.32117331 135.00078497 -11 126 C-7.87709365 126.48578543 -5.00419641 126.9986012 -2 128 C-1.89945312 127.02675781 -1.79890625 126.05351562 -1.6953125 125.05078125 C-1.05160321 120.52548218 0.54467025 116.45552074 2.125 112.1875 C4.30922559 106.06558554 5.43121173 101.67062919 4.1015625 95.19140625 C3.90188771 90.88303869 6.61312622 87.41925863 9 84 C4.23872375 85.73925099 4.23872375 85.73925099 0.3125 88.75 C-0.120625 89.1625 -0.55375 89.575 -1 90 C-3.97397616 89.72963853 -4.85446026 89.14553974 -7 87 C-7.70553903 82.59038104 -7.22073857 79.75843907 -4.75 76.125 C2.70295539 67.04337028 13.16665355 59.9813719 24.95703125 58.8046875 C31.22673964 58.47528075 36.61110232 59.71498703 42 63 C43.79286149 64.84175771 45.15931307 66.70696103 46.56640625 68.85546875 C48.08560516 71.12805785 49.77719982 73.05062454 51.625 75.0625 C57.56066931 81.87996498 59.44547969 85.97132082 59.43359375 95.23046875 C58.27495145 105.30335002 54.83422021 114.96830411 51.6875 124.5625 C50.89022829 127.01679825 50.09335512 129.471226 49.296875 131.92578125 C48.90822266 133.12025879 48.51957031 134.31473633 48.11914062 135.54541016 C46.53377175 140.43916443 44.98128251 145.34299406 43.4375 150.25 C43.18637451 151.04736572 42.93524902 151.84473145 42.67651367 152.66625977 C42.11700424 154.44396196 41.55838005 156.22194274 41 158 C56.13792049 147.97358513 63.0516244 131.71301366 67.65625 114.74609375 C69.20356393 109.10685976 71.11408503 103.59570746 73 98.0625 C75.76628149 89.92740186 78.30944086 81.78936245 80.36523438 73.44360352 C81.9480318 67.29274175 81.9480318 67.29274175 85 65 C87.89160156 64.20043945 87.89160156 64.20043945 91.390625 63.61328125 C93.29134766 63.2894043 93.29134766 63.2894043 95.23046875 62.95898438 C95.89095215 62.85287842 96.55143555 62.74677246 97.23193359 62.63745117 C99.23137307 62.31549933 101.22689958 61.97482782 103.22265625 61.63085938 C119.00195312 59.00097656 119.00195312 59.00097656 123 61 C122.343621 65.48525648 121.29925791 69.66914029 120 74 C123.96 74 127.92 74 132 74 C132.30966821 79.73263825 131.27438694 84.15579235 129.4375 89.5625 C128.88401952 91.25387514 128.33063808 92.9452827 127.77734375 94.63671875 C127.48585449 95.51505371 127.19436523 96.39338867 126.89404297 97.29833984 C125.39958749 101.81435413 123.94740273 106.34372029 122.5 110.875 C122.06131592 112.24591797 122.06131592 112.24591797 121.61376953 113.64453125 C119.29140234 120.956971 117.14742729 128.31237641 115.07177734 135.69824219 C113.38275252 141.70596648 111.58149722 147.66219155 109.6640625 153.6015625 C108.86658289 156.06709278 108.86658289 156.06709278 109 159 C118.92892909 150.28851453 125.53818047 138.91170692 131 127 C131.66 127 132.32 127 133 127 C133.11214844 125.83726562 133.22429687 124.67453125 133.33984375 123.4765625 C133.87564332 119.23675724 135.02858518 115.35548147 136.5625 111.375 C136.82716064 110.68696289 137.09182129 109.99892578 137.36450195 109.29003906 C142.41695123 96.59989535 149.3191937 86.56921199 159 77 C159.72960937 76.26007813 160.45921875 75.52015625 161.2109375 74.7578125 C175.38717703 61.21397028 191.56040404 56.4341004 210.73144531 56.51367188 C219.01457504 56.71905943 226.25910888 57.89810445 234 61 C234.11085938 59.93910156 234.22171875 58.87820313 234.3359375 57.78515625 C235.65199869 50.28360745 240.5357975 44.93177248 246.2890625 40.19140625 C250.24376154 37.43756331 253.07781588 36.70588468 257.9375 36.6875 C258.95714844 36.67074219 259.97679687 36.65398437 261.02734375 36.63671875 C265.61251386 37.19706148 268.16340118 39.09368461 271.25 42.4375 C273 45 273 45 273.3984375 47.01171875 C274.17134104 49.56631551 275.11545054 50.03071108 277.375 51.375 C280.93023468 53.75489016 282.54319461 55.88666713 284 60 C284.25 62.8125 284.25 62.8125 284 65 C283 66 283 66 279.3125 66.25 C275.69206248 66.70901976 273.10920584 67.58292607 270.37890625 70.171875 C264.7679495 77.61076384 263.07390556 86.95995916 262 96 C261.34 96 260.68 96 260 96 C260.226875 96.99 260.45375 97.98 260.6875 99 C261.3851425 103.61009705 259.8423967 106.79933553 258 111 C259.485 110.505 259.485 110.505 261 110 C262.89470816 109.9314505 264.7916834 109.91519628 266.6875 109.9375 C267.68136719 109.94652344 268.67523437 109.95554687 269.69921875 109.96484375 C270.45847656 109.97644531 271.21773437 109.98804688 272 110 C272.309375 108.80375 272.61875 107.6075 272.9375 106.375 C279.33566125 87.3006695 296.42720086 70.81997817 314 62 C331.17678262 54.70484136 350.4663002 54.79534162 368 61 C368.309375 59.2984375 368.309375 59.2984375 368.625 57.5625 C370.66941814 49.54099828 375.46306799 43.87007133 382.0703125 39.09375 C386.95711565 36.32390206 392.53226434 36.51101551 398 37 C402.17239687 38.72338131 404.46956638 41.2947222 407 45 C407.13277344 45.66902344 407.26554687 46.33804688 407.40234375 47.02734375 C407.90103626 49.44224829 407.90103626 49.44224829 411.3125 51.125 C416.0861203 54.23865769 417.35666982 58.74338481 419 64 C419.54269531 63.72285156 420.08539062 63.44570313 420.64453125 63.16015625 C421.35996094 62.79792969 422.07539062 62.43570313 422.8125 62.0625 C423.52019531 61.70285156 424.22789062 61.34320313 424.95703125 60.97265625 C431.48564553 57.86438674 440.72824333 57.50520732 447.58984375 59.90625 C452.75859703 63.00154947 456.4451937 67.29598905 459.4375 72.5 C460.85908401 74.77453442 462.03854992 75.99577929 464 77.75 C468.6347637 82.2579418 470.09915539 87.96807399 470.375 94.3125 C469.69484415 107.4390652 464.11843632 120.77390511 460.3125 133.25 C459.69960077 135.26684535 459.08696835 137.2837718 458.47460938 139.30078125 C456.98614818 144.20146153 455.49407782 149.1010293 454 154 C455.28660957 153.04971019 456.57121987 152.09671314 457.85498047 151.14257812 C458.57056122 150.61216919 459.28614197 150.08176025 460.02340698 149.53527832 C468.40250798 143.02698248 472.40069201 133.68576457 476 124 C476.24991699 123.33548828 476.49983398 122.67097656 476.75732422 121.98632812 C479.59139561 114.38806951 482.13675181 106.73158383 484.375 98.9375 C486.48512989 91.59998289 488.76219606 84.32260533 491.125 77.0625 C491.46192871 76.00087646 491.79885742 74.93925293 492.14599609 73.84545898 C492.47164551 72.85618408 492.79729492 71.86690918 493.1328125 70.84765625 C493.56424561 69.5174646 493.56424561 69.5174646 494.00439453 68.16040039 C495 66 495 66 498 64 C499.95753849 63.5679107 501.93479055 63.22236876 503.91796875 62.9296875 C505.09037109 62.75566406 506.26277344 62.58164062 507.47070312 62.40234375 C508.69724609 62.22832031 509.92378906 62.05429687 511.1875 61.875 C512.39470703 61.69324219 513.60191406 61.51148438 514.84570312 61.32421875 C520.94222112 60.43757371 526.8371961 59.65385961 533 60 C534 61 534 61 534.25 63.5625 C533.9363148 67.8756715 532.65063348 71.0109691 531 75 C532.485 74.505 532.485 74.505 534 74 C535.72795352 73.93197033 537.45835365 73.91504355 539.1875 73.9375 C540.53908203 73.95103516 540.53908203 73.95103516 541.91796875 73.96484375 C542.60503906 73.97644531 543.29210937 73.98804688 544 74 C543.46807662 81.11174273 541.84113638 87.26136984 539.5625 94 C538.83989022 96.19316935 538.1199868 98.38723168 537.40234375 100.58203125 C536.82395752 102.35054443 536.82395752 102.35054443 536.23388672 104.15478516 C533.9239011 111.29881446 531.78687334 118.49761005 529.625 125.6875 C528.9838302 127.8198227 528.34259759 129.95212529 527.70054626 132.08418274 C527.1385877 133.95120793 526.57826913 135.81872652 526.01806641 137.6862793 C525.3481901 139.86667046 524.63259885 142.03362295 523.86865234 144.18286133 C522.8035626 147.14573209 522.8035626 147.14573209 523 151 C530.00205859 142.80499809 534.68441955 134.1198675 539.10473633 124.30419922 C539.53939209 123.37494629 539.97404785 122.44569336 540.421875 121.48828125 C540.79924805 120.64821533 541.17662109 119.80814941 541.56542969 118.94262695 C543 117 543 117 545.48144531 116.12573242 C548 116 548 116 550.875 117.5 C553 120 553 120 552.8203125 123.18359375 C551.95552237 127.2069269 550.67395882 130.82354411 549 134.5625 C548.53533325 135.60349854 548.53533325 135.60349854 548.0612793 136.66552734 C540.89328153 152.22839759 530.26411002 166.14621296 517 177 C533.1624812 164.16508846 543.41216114 150.71066628 553.09545898 132.59130859 C554 131 554 131 555 130 C561.6 130.6 561.6 130.6 564 133 C562.81066917 149.84885339 549.25259601 167.45944385 538 179 C537.175 179.86625 536.35 180.7325 535.5 181.625 C534.675 182.40875 533.85 183.1925 533 184 C532.40316406 184.59167969 531.80632813 185.18335938 531.19140625 185.79296875 C524.73641149 191.91633075 516.06616735 198.46381949 507.28515625 200.6875 C503.49524914 202.86426716 502.95483836 206.61019725 501.6875 210.625 C495.63447676 228.32774424 487.21674888 244.55299417 474 258 C473.36320313 258.6496875 472.72640625 259.299375 472.0703125 259.96875 C462.34482873 269.16962262 449.33279151 273.89692308 436.0625 274.4375 C425.03442595 274.10550301 414.3321847 270.28481175 406.43359375 262.4453125 C404.88389147 260.6802565 403.44961226 258.84816746 402 257 C401.25363281 256.13890625 400.50726562 255.2778125 399.73828125 254.390625 C392.3674917 245.79730514 389.20320679 239.84717323 389.53515625 228.375 C390.82545344 219.00679181 395.94396747 211.99573387 403.0703125 206.0390625 C408.38716282 202.33853468 414.11117245 199.67741404 420 197 C421.33677628 196.34026414 422.67194148 195.67711358 424 195 C423.39671875 194.49210938 422.7934375 193.98421875 422.171875 193.4609375 C417.66093113 189.5757052 414.2382887 186.02493075 411 181 C409.989375 180.21625 408.97875 179.4325 407.9375 178.625 C403.1936257 174.38579318 402.23486495 170.60671101 401.68359375 164.48828125 C401.38060887 154.50932776 403.08568608 145.52872713 406 136 C406.23557617 135.22688477 406.47115234 134.45376953 406.71386719 133.65722656 C408.8342687 126.7582993 411.01324912 119.87789405 413.34375 113.046875 C413.7253125 111.89703125 414.106875 110.7471875 414.5 109.5625 C414.8403125 108.57378906 415.180625 107.58507812 415.53125 106.56640625 C416.08930595 103.5110499 415.54030644 102.61205812 414 100 C413.39976967 93.79761993 414.0291355 91.02197569 418 86 C418.66 85.01 419.32 84.02 420 83 C416.13765105 83.98804275 414.20259447 84.79258186 411.375 87.6875 C409 90 409 90 406.8125 90 C405 89 405 89 403 86 C402.53821543 82.32078166 402.67844919 80.53305632 404.609375 77.33203125 C405.66898438 76.08486328 405.66898438 76.08486328 406.75 74.8125 C407.44609375 73.97332031 408.1421875 73.13414062 408.859375 72.26953125 C410.79094818 70.22164071 412.69074239 68.59671641 415 67 C411.470224 66.67164874 409.48765353 66.72134084 406.375 68.5 C397.94181114 77.37704091 396.33762168 92.07076297 394.39453125 103.765625 C394.02424979 105.86266455 393.51647466 107.93410137 393 110 C396.96 110 400.92 110 405 110 C404.45947903 116.10788694 403.46365988 121.59953435 401.625 127.4375 C401.37314941 128.25806885 401.12129883 129.0786377 400.86181641 129.92407227 C397.6661623 140.24218106 394.30861025 150.5118412 390.95947266 160.78100586 C388.57575222 168.09354355 386.24488083 175.41657999 383.99658203 182.7722168 C378.61196565 200.21220044 373.12617509 217.61584945 365 234 C364.48953125 235.04800781 363.9790625 236.09601563 363.453125 237.17578125 C360.05219299 243.78565718 355.78555796 249.33725219 351 255 C350.54238281 255.61488281 350.08476563 256.22976563 349.61328125 256.86328125 C340.96331544 268.16278614 325.73957926 275.56854507 312 278 C300.89409488 278.97465466 289.00886155 279.46264616 279 274 C278.29230469 273.649375 277.58460938 273.29875 276.85546875 272.9375 C271.05699768 269.74446048 267.19187896 265.0252043 263 260 C261.77312871 258.62295152 260.54406691 257.24785056 259.3125 255.875 C250.94928068 246.25156955 248.13943096 238.4798597 248.4921875 225.69921875 C249.16846984 216.42583883 254.12008466 207.58972427 261.0625 201.453125 C272.29220945 193.03084291 282.03183697 190.40887084 296 191 C295.443125 190.61070312 294.88625 190.22140625 294.3125 189.8203125 C288.96187719 185.89772754 284.91768832 181.75624435 280.9140625 176.4765625 C279.12959793 174.16768386 277.2427653 172.06594293 275.25 169.9375 C266.82263637 160.37752941 265.78585376 148.22209402 265 136 C264.731875 136.86496094 264.46375 137.72992188 264.1875 138.62109375 C257.39216093 160.46006175 250.32354364 182.20274569 243.04174805 203.88378906 C242.4115422 205.76894195 241.78648083 207.65584033 241.17114258 209.54589844 C233.16430082 234.11264752 220.67201857 259.34824495 197 272 C183.14535387 278.25641546 164.65666211 281.50762994 149.8125 276.375 C148.18617173 275.6299207 146.58002585 274.83881172 145 274 C143.73349609 273.41605469 143.73349609 273.41605469 142.44140625 272.8203125 C135.86997407 269.4395757 132.21946395 264.87147967 128.10546875 258.8046875 C125.97957185 255.97278773 123.76212227 254.18062285 121 252 C119.70703125 250.0703125 119.70703125 250.0703125 118.8125 248.125 C118.50957031 247.48820313 118.20664062 246.85140625 117.89453125 246.1953125 C114.18779201 237.09842405 113.12372474 227.04104555 116.5625 217.625 C121.9831459 206.15605447 130.90347264 197.57796588 142.6796875 193 C148.35143297 191.29180372 154.11887242 190.58289282 160 190 C159.5153125 189.68289063 159.030625 189.36578125 158.53125 189.0390625 C153.34873654 185.43123582 149.65438621 181.401066 145.859375 176.3671875 C144.03508368 174.04466535 142.19896812 171.971802 140 170 C139.34 170 138.68 170 138 170 C136.79696095 171.38997745 135.66364664 172.84048901 134.5625 174.3125 C123.11751989 188.92973003 110.32526208 200.07387416 91.42578125 202.44921875 C84.84716188 202.67079826 79.26908278 202.17571903 74 198 C71.48238692 195.47183089 69.24376897 192.77042379 67 190 C65.39619055 188.18756493 63.81583627 186.61407668 62 185 C58.33681939 185 57.9925036 185.66067502 55.4375 188.125 C45.60151974 196.97738223 33.13643641 203.05091634 19.62890625 202.44140625 C10.71945345 200.94546544 5.34294574 195.89290405 0 189 C-1.21522968 187.48868682 -2.44418322 185.98829233 -3.6875 184.5 C-4.22761719 183.8296875 -4.76773438 183.159375 -5.32421875 182.46875 C-7.12996677 180.56058339 -7.12996677 180.56058339 -11 181 C-12.88169946 182.50900978 -12.88169946 182.50900978 -14.625 184.5625 C-23.61909843 193.95486109 -35.40444357 201.1764291 -48.61328125 202.203125 C-56.82863661 202.34579398 -63.25920568 201.22652337 -69.56640625 195.5859375 C-71.90670074 192.99694687 -73.69763843 190.07881181 -75.5546875 187.1328125 C-77.0440643 184.78171257 -77.0440643 184.78171257 -79.6875 182.375 C-84.08706131 177.85653163 -85.36956474 172.9280066 -85.46801758 166.7980957 C-85.45794678 166.06034912 -85.44787598 165.32260254 -85.4375 164.5625 C-85.43065186 163.7789917 -85.42380371 162.9954834 -85.41674805 162.18823242 C-85.09358579 150.17797368 -81.10965647 139.24792873 -77.32250977 127.95483398 C-71.05384186 109.24585522 -65.1606297 90.42432902 -59.48095703 71.52954102 C-57.27370993 64.18830281 -55.02996299 56.86196192 -52.6875 49.5625 C-49.87168261 40.77758263 -47.40450926 31.9051958 -45 23 C-46.299375 23.020625 -47.59875 23.04125 -48.9375 23.0625 C-50.29165633 23.08399454 -51.64756083 23.07148199 -53 23 C-54 22 -54 22 -54.3125 19.3125 C-53.93268443 15.286455 -53.03030552 12.66779136 -50 10 C-46.1910739 8.45386328 -42.2715355 7.68226411 -38.25 6.875 C-35.98417161 6.38114057 -33.71854626 5.88634865 -31.453125 5.390625 C-30.34904297 5.15666016 -29.24496094 4.92269531 -28.10742188 4.68164062 C-24.70270914 3.93478661 -21.34570952 3.06828178 -17.98144531 2.15966797 C-11.80251603 0.49236201 -6.39104999 -0.45650357 0 0 Z " fill="#467AA4" transform="translate(377,374)"/>
<path d="M0 0 C0.79991364 -0.00067474 1.59982727 -0.00134949 2.42398071 -0.00204468 C14.35545043 0.01393224 25.85666999 0.4151757 37.5 3.25 C38.21027344 3.41097168 38.92054688 3.57194336 39.65234375 3.73779297 C55.42431696 7.39613167 69.17906723 14.53869024 80.5 26.25 C81.15871094 26.92289062 81.81742188 27.59578125 82.49609375 28.2890625 C100.12518072 47.23057646 109.41519237 66.7792474 108.78515625 92.93359375 C108.50205491 99.64155556 107.43341566 105.80006273 105.5 112.25 C105.00693359 113.96703125 105.00693359 113.96703125 104.50390625 115.71875 C98.31046099 135.09201823 83.99158744 152.70462924 66.31640625 162.80078125 C51.92670052 170.20519294 37.56347311 173.67583942 21.38671875 170.671875 C12.40238201 167.51947614 5.38464768 160.21016659 0.5 152.25 C-1.12652316 150.54413425 -2.79006566 148.8722454 -4.5 147.25 C-5.50236685 146.25237247 -6.50289434 145.25288598 -7.5 144.25 C-7.64695312 144.89582031 -7.79390625 145.54164063 -7.9453125 146.20703125 C-9.6593914 153.40813282 -11.76478946 160.43158635 -14.02368164 167.47485352 C-16.10336029 173.96378072 -18.09503527 180.47624479 -20.0625 187 C-22.38548572 194.68391703 -24.81298233 202.31412857 -27.38671875 209.91796875 C-28.82071744 214.20990168 -30.14799656 218.53030651 -31.46484375 222.859375 C-32.21945078 225.33106897 -32.98162184 227.79946735 -33.75390625 230.265625 C-34.07633301 231.29695557 -34.07633301 231.29695557 -34.40527344 232.34912109 C-34.84018854 233.73109129 -35.27957853 235.1116619 -35.72363281 236.49072266 C-36.66654465 239.44110099 -37.52177972 242.35214817 -38.16796875 245.3828125 C-38.72272198 247.93691127 -39.27715035 249.94499235 -40.5 252.25 C-42.1628418 253.203125 -42.1628418 253.203125 -44.26171875 253.8125 C-45.47335693 254.1669519 -45.47335693 254.1669519 -46.70947266 254.52856445 C-52.13994286 255.93250491 -57.58673417 257.22233005 -63.0625 258.4375 C-64.83270508 258.84645508 -64.83270508 258.84645508 -66.63867188 259.26367188 C-72.72676698 260.62301712 -78.26093691 261.59704306 -84.5 261.25 C-83.90380045 256.38103697 -82.93023178 251.92209049 -81.5 247.25 C-82.49580078 247.48396484 -82.49580078 247.48396484 -83.51171875 247.72265625 C-84.39472656 247.91730469 -85.27773437 248.11195313 -86.1875 248.3125 C-87.05761719 248.50972656 -87.92773438 248.70695313 -88.82421875 248.91015625 C-91.66001276 249.27032279 -93.74789982 248.95909969 -96.5 248.25 C-95.98539938 241.0008434 -94.23154904 234.8300268 -91.8125 228 C-89.16903391 220.31875194 -86.66791198 212.64165977 -84.5 204.8125 C-82.27026223 196.79860566 -79.84842495 188.85994745 -77.3125 180.9375 C-76.81266602 179.37140991 -76.81266602 179.37140991 -76.30273438 177.77368164 C-74.89673569 173.41105444 -73.46453813 169.07750253 -71.82421875 164.796875 C-70.81036571 162.08130404 -70.0294289 159.64163571 -69.5 156.8125 C-68.71048536 153.01376971 -67.62175204 149.4325526 -66.3515625 145.76953125 C-64.98652715 141.73077988 -63.78601451 137.64207344 -62.5625 133.55859375 C-61.8088971 131.21189648 -60.98042472 128.88865472 -60.1015625 126.5859375 C-58.08702156 121.28799739 -56.50764266 115.86258861 -54.875 110.4375 C-51.64901673 99.81898605 -48.21471999 89.28503736 -44.65698242 78.7734375 C-42.07664405 71.10962404 -39.74696072 63.41961096 -37.66796875 55.60546875 C-35.91664938 50.57408633 -34.2510396 47.23324083 -29.515625 44.57421875 C-24.22376912 42.65106026 -18.71671637 41.3788021 -13.25 40.0625 C-12.18136719 39.78986328 -11.11273438 39.51722656 -10.01171875 39.23632812 C-3.05323888 37.54955202 3.3468349 36.88877408 10.5 37.25 C11.38630451 41.13784695 11.46699487 43.29845374 10.0625 47.0625 C9.77503906 47.85269531 9.48757812 48.64289063 9.19140625 49.45703125 C8.96324219 50.04871094 8.73507813 50.64039063 8.5 51.25 C9.06203125 51.08628906 9.6240625 50.92257812 10.203125 50.75390625 C12.63059056 50.22135003 14.76889681 50.15101319 17.25 50.1875 C18.04921875 50.19652344 18.8484375 50.20554687 19.671875 50.21484375 C20.27515625 50.22644531 20.8784375 50.23804688 21.5 50.25 C20.75416949 56.07925423 18.98832288 61.53324977 17.25 67.125 C16.93571045 68.1464209 16.6214209 69.1678418 16.29760742 70.22021484 C15.36959957 73.23156839 14.43603492 76.24113296 13.5 79.25 C13.12705811 80.44979492 13.12705811 80.44979492 12.74658203 81.67382812 C10.95761654 87.42214795 9.1606567 93.16793041 7.33984375 98.90625 C6.98019531 100.0509375 6.62054688 101.195625 6.25 102.375 C5.93546875 103.36757813 5.6209375 104.36015625 5.296875 105.3828125 C4.47908954 108.32523665 3.94792259 111.23100173 3.5 114.25 C5.48 114.25 7.46 114.25 9.5 114.25 C9.335 114.91 9.17 115.57 9 116.25 C8.29956995 120.45258033 7.5520803 125.35416059 9.5 129.25 C12.8 128.92 16.1 128.59 19.5 128.25 C19.5 129.57 19.5 130.89 19.5 132.25 C32.42405351 127.98612169 39.98440573 120.09709956 46.12890625 108.05859375 C54.02689972 90.65925475 58.40522809 71.36104425 51.68359375 52.82421875 C48.47239783 45.84013257 42.33913694 43.01994069 35.5 40.25 C11.23418076 32.34642707 -14.78679882 32.7141105 -38.0625 43.875 C-53.8652315 52.07237096 -64.14706423 65.37276863 -69.5 82.25 C-72.01326265 92.25502649 -71.78155977 104.20894379 -66.5 113.25 C-64.29992638 115.67149431 -62.18828512 117.33718174 -59.5 119.25 C-60.46450712 123.10802849 -61.38130615 124.17010991 -64.75 126.4375 C-72.68706696 130.71550627 -81.60199181 132.00633208 -90.3203125 129.41015625 C-96.85609522 126.44207144 -102.37955802 121.75277123 -105.48046875 115.16796875 C-106.64945646 112.96883861 -107.80782871 112.07405287 -109.8125 110.625 C-115.00130757 106.38945979 -117.41950389 100.49148832 -119.5 94.25 C-121.18140531 73.79019636 -117.11177983 56.92157953 -104.25 40.5625 C-86.70353956 20.13128251 -63.10042872 8.92755586 -37.25 3 C-36.18773193 2.75491699 -36.18773193 2.75491699 -35.10400391 2.50488281 C-23.53431855 0.00491394 -11.78314522 0.00895364 0 0 Z " fill="#4779A3" transform="translate(204.5,354.75)"/>
<path d="M0 0 C4.00262312 0.91488528 5.61661144 2.52875206 7.75 5.875 C9.36106832 8.55671499 10.36751259 10.93381104 11 14 C11.54269531 13.72285156 12.08539062 13.44570313 12.64453125 13.16015625 C13.35996094 12.79792969 14.07539062 12.43570312 14.8125 12.0625 C15.52019531 11.70285156 16.22789062 11.34320313 16.95703125 10.97265625 C23.48564553 7.86438674 32.72824333 7.50520732 39.58984375 9.90625 C44.75859703 13.00154947 48.4451937 17.29598905 51.4375 22.5 C52.85908401 24.77453442 54.03854992 25.99577929 56 27.75 C60.6347637 32.2579418 62.09915539 37.96807399 62.375 44.3125 C61.69484415 57.4390652 56.11843632 70.77390511 52.3125 83.25 C51.69960077 85.26684535 51.08696835 87.2837718 50.47460938 89.30078125 C48.98614818 94.20146153 47.49407782 99.1010293 46 104 C47.28660957 103.04971019 48.57121987 102.09671314 49.85498047 101.14257812 C50.57056122 100.61216919 51.28614197 100.08176025 52.02340698 99.53527832 C60.40250798 93.02698248 64.40069201 83.68576457 68 74 C68.24991699 73.33548828 68.49983398 72.67097656 68.75732422 71.98632812 C71.59139561 64.38806951 74.13675181 56.73158383 76.375 48.9375 C78.48512989 41.59998289 80.76219606 34.32260533 83.125 27.0625 C83.46192871 26.00087646 83.79885742 24.93925293 84.14599609 23.84545898 C84.47164551 22.85618408 84.79729492 21.86690918 85.1328125 20.84765625 C85.42043457 19.96086182 85.70805664 19.07406738 86.00439453 18.16040039 C87 16 87 16 90 14 C91.95753849 13.5679107 93.93479055 13.22236876 95.91796875 12.9296875 C97.09037109 12.75566406 98.26277344 12.58164062 99.47070312 12.40234375 C100.69724609 12.22832031 101.92378906 12.05429687 103.1875 11.875 C104.39470703 11.69324219 105.60191406 11.51148438 106.84570312 11.32421875 C112.94222112 10.43757371 118.8371961 9.65385961 125 10 C126 11 126 11 126.25 13.5625 C125.9363148 17.8756715 124.65063348 21.0109691 123 25 C123.99 24.67 124.98 24.34 126 24 C127.72795352 23.93197033 129.45835365 23.91504355 131.1875 23.9375 C132.08855469 23.94652344 132.98960937 23.95554687 133.91796875 23.96484375 C134.60503906 23.97644531 135.29210937 23.98804688 136 24 C135.46807662 31.11174273 133.84113638 37.26136984 131.5625 44 C130.83989022 46.19316935 130.1199868 48.38723168 129.40234375 50.58203125 C128.82395752 52.35054443 128.82395752 52.35054443 128.23388672 54.15478516 C125.9239011 61.29881446 123.78687334 68.49761005 121.625 75.6875 C120.9838302 77.8198227 120.34259759 79.95212529 119.70054626 82.08418274 C119.1385877 83.95120793 118.57826913 85.81872652 118.01806641 87.6862793 C117.3481901 89.86667046 116.63259885 92.03362295 115.86865234 94.18286133 C114.8035626 97.14573209 114.8035626 97.14573209 115 101 C122.00205859 92.80499809 126.68441955 84.1198675 131.10473633 74.30419922 C131.75671997 72.91031982 131.75671997 72.91031982 132.421875 71.48828125 C132.98793457 70.22818237 132.98793457 70.22818237 133.56542969 68.94262695 C135 67 135 67 137.48144531 66.12573242 C140 66 140 66 142.875 67.5 C145 70 145 70 144.8203125 73.18359375 C143.95552237 77.2069269 142.67395882 80.82354411 141 84.5625 C140.69022217 85.25649902 140.38044434 85.95049805 140.0612793 86.66552734 C132.89328153 102.22839759 122.26411002 116.14621296 109 127 C125.1624812 114.16508846 135.41216114 100.71066628 145.09545898 82.59130859 C146 81 146 81 147 80 C153.6 80.6 153.6 80.6 156 83 C154.81066917 99.84885339 141.25259601 117.45944385 130 129 C129.175 129.86625 128.35 130.7325 127.5 131.625 C126.675 132.40875 125.85 133.1925 125 134 C124.40316406 134.59167969 123.80632812 135.18335938 123.19140625 135.79296875 C116.73641149 141.91633075 108.06616735 148.46381949 99.28515625 150.6875 C95.49524914 152.86426716 94.95483836 156.61019725 93.6875 160.625 C87.63447676 178.32774424 79.21674888 194.55299417 66 208 C65.04480469 208.97453125 65.04480469 208.97453125 64.0703125 209.96875 C54.34482873 219.16962262 41.33279151 223.89692308 28.0625 224.4375 C17.03442595 224.10550301 6.3321847 220.28481175 -1.56640625 212.4453125 C-3.11610853 210.6802565 -4.55038774 208.84816746 -6 207 C-6.74636719 206.13890625 -7.49273438 205.2778125 -8.26171875 204.390625 C-15.6325083 195.79730514 -18.79679321 189.84717323 -18.46484375 178.375 C-17.17454656 169.00679181 -12.05603253 161.99573387 -4.9296875 156.0390625 C0.38716282 152.33853468 6.11117245 149.67741404 12 147 C13.33677628 146.34026414 14.67194148 145.67711358 16 145 C15.39671875 144.49210938 14.7934375 143.98421875 14.171875 143.4609375 C9.66093113 139.5757052 6.2382887 136.02493075 3 131 C1.4840625 129.824375 1.4840625 129.824375 -0.0625 128.625 C-4.8063743 124.38579318 -5.76513505 120.60671101 -6.31640625 114.48828125 C-6.61939113 104.50932776 -4.91431392 95.52872713 -2 86 C-1.76442383 85.22688477 -1.52884766 84.45376953 -1.28613281 83.65722656 C0.8342687 76.7582993 3.01324912 69.87789405 5.34375 63.046875 C5.7253125 61.89703125 6.106875 60.7471875 6.5 59.5625 C6.8403125 58.57378906 7.180625 57.58507812 7.53125 56.56640625 C8.08930595 53.5110499 7.54030644 52.61205812 6 50 C5.39976967 43.79761993 6.0291355 41.02197569 10 36 C10.66 35.01 11.32 34.02 12 33 C8.13765105 33.98804275 6.20259447 34.79258186 3.375 37.6875 C1 40 1 40 -1.1875 40 C-3 39 -3 39 -5 36 C-5.46178457 32.32078166 -5.32155081 30.53305632 -3.390625 27.33203125 C-2.68421875 26.50058594 -1.9778125 25.66914063 -1.25 24.8125 C-0.55390625 23.97332031 0.1421875 23.13414062 0.859375 22.26953125 C2.79094818 20.22164071 4.69074239 18.59671641 7 17 C3.470224 16.67164874 1.48765353 16.72134084 -1.625 18.5 C-7.33863209 24.51434957 -8.86318944 31.6723265 -10.51782227 39.54003906 C-11.68496187 44.78997458 -11.68496187 44.78997458 -15 47 C-17.02714151 47.42957431 -19.07304283 47.77386773 -21.125 48.0625 C-22.27613281 48.22621094 -23.42726563 48.38992188 -24.61328125 48.55859375 C-28.73828525 49.09622403 -32.86146254 49.57913178 -37 50 C-36.88490339 48.58249437 -36.75746342 47.16598831 -36.625 45.75 C-36.55539062 44.96109375 -36.48578125 44.1721875 -36.4140625 43.359375 C-35.9729732 40.84599825 -35.39906059 39.13368438 -34 37 C-29.92893763 35.46375005 -26.34409038 34.7367218 -22 35 C-22.061875 33.9275 -22.12375 32.855 -22.1875 31.75 C-22.17242711 23.26396337 -19.79894877 14.98028912 -15 8 C-14.46375 7.195625 -13.9275 6.39125 -13.375 5.5625 C-9.54359767 3.04184057 -5.45506499 3.69392683 -1 4 C-0.67 2.68 -0.34 1.36 0 0 Z " fill="#477AA4" transform="translate(785,424)"/>
<path d="M0 0 C0.85890896 3.82103351 0.98378571 6.06880709 -0.25 9.8125 C-0.62898438 10.99779297 -0.62898438 10.99779297 -1.015625 12.20703125 C-1.79524742 14.41905518 -2.60744795 16.60918511 -3.44140625 18.80078125 C-5.0059455 22.94909249 -6.369102 27.14292856 -7.6875 31.375 C-7.94023682 32.18026123 -8.19297363 32.98552246 -8.45336914 33.81518555 C-10.99140205 41.92361712 -13.47655319 50.04840751 -15.9675293 58.17138672 C-18.37908615 66.02139637 -20.85118755 73.85022639 -23.35522461 81.67114258 C-25.6209085 88.76541714 -27.81868183 95.87937516 -30 103 C-32.73036867 111.91292762 -35.51478633 120.80593044 -38.35986328 129.68286133 C-40.24550208 135.58252053 -42.0754161 141.49722782 -43.88012695 147.42211914 C-48.04090563 161.07866264 -52.47603392 174.63047006 -57.04150391 188.15673828 C-58.37119629 192.10110851 -59.68656854 196.05019183 -61 200 C-61.33 200.99 -61.66 201.98 -62 203 C-64.23730469 203.89135742 -64.23730469 203.89135742 -67.171875 204.60546875 C-68.22890625 204.86650391 -69.2859375 205.12753906 -70.375 205.39648438 C-71.48875 205.65751953 -72.6025 205.91855469 -73.75 206.1875 C-75.39742187 206.59645508 -75.39742187 206.59645508 -77.078125 207.01367188 C-81.81828966 208.16132097 -86.09927838 209.17247414 -91 209 C-91.495 209.99 -91.495 209.99 -92 211 C-95.16015625 211.4140625 -95.16015625 211.4140625 -99.0625 211.625 C-100.99802734 211.73714844 -100.99802734 211.73714844 -102.97265625 211.8515625 C-103.97167969 211.90054688 -104.97070312 211.94953125 -106 212 C-107.81647876 206.78702841 -105.97772794 202.36468559 -104.4375 197.3125 C-104.16373535 196.38493896 -103.8899707 195.45737793 -103.60791016 194.50170898 C-101.61022151 187.80905227 -99.47317068 181.16349893 -97.18139648 174.56567383 C-95.67552095 170.19740788 -94.35859717 165.79943893 -93.10546875 161.3515625 C-90.71927584 152.90432651 -87.99642056 144.57774798 -85.26757812 136.23632812 C-83.2337293 129.97539997 -81.3105426 123.71628163 -79.640625 117.34790039 C-78.81919609 114.33735093 -77.82825883 111.40001396 -76.81640625 108.44921875 C-75.47659226 104.42977678 -74.27848276 100.36693622 -73.0625 96.30859375 C-72.3088971 93.96189648 -71.48042472 91.63865472 -70.6015625 89.3359375 C-68.58702156 84.03799739 -67.00764266 78.61258861 -65.375 73.1875 C-62.14901673 62.56898605 -58.71471999 52.03503736 -55.15698242 41.5234375 C-52.57664405 33.85962404 -50.24696072 26.16961096 -48.16796875 18.35546875 C-46.41664938 13.32408633 -44.7510396 9.98324083 -40.015625 7.32421875 C-34.72376912 5.40106026 -29.21671637 4.1288021 -23.75 2.8125 C-22.14705078 2.40354492 -22.14705078 2.40354492 -20.51171875 1.98632812 C-13.55323888 0.29955202 -7.1531651 -0.36122592 0 0 Z " fill="#477AA3" transform="translate(215,392)"/>
<path d="M0 0 C-0.54052097 6.10788694 -1.53634012 11.59953435 -3.375 17.4375 C-3.62685059 18.25806885 -3.87870117 19.0786377 -4.13818359 19.92407227 C-7.3338377 30.24218106 -10.69138975 40.5118412 -14.04052734 50.78100586 C-16.42424778 58.09354355 -18.75511917 65.41657999 -21.00341797 72.7722168 C-26.38803435 90.21220044 -31.87382491 107.61584945 -40 124 C-40.51046875 125.04800781 -41.0209375 126.09601563 -41.546875 127.17578125 C-44.94780701 133.78565718 -49.21444204 139.33725219 -54 145 C-54.45761719 145.61488281 -54.91523437 146.22976563 -55.38671875 146.86328125 C-64.03668456 158.16278614 -79.26042074 165.56854507 -93 168 C-104.10131678 168.97425199 -115.99719535 169.46748283 -126 164 C-126.71929688 163.63777344 -127.43859375 163.27554688 -128.1796875 162.90234375 C-133.44140563 159.97365158 -137.52911097 155.91347728 -141 151 C-141 150.34 -141 149.68 -141 149 C-134.64784967 150.75697775 -134.64784967 150.75697775 -131.98828125 151.75463867 C-126.22754209 153.90360202 -121.06507344 154.54516077 -114.9375 154.5 C-114.02427979 154.49427979 -113.11105957 154.48855957 -112.17016602 154.48266602 C-94.0801049 154.01338938 -78.55130483 145.8916792 -66 133 C-51.00692534 116.67912537 -43.48473717 95.33561527 -36.75 74.625 C-36.22984444 73.04795337 -35.70901278 71.47112958 -35.1875 69.89453125 C-32.91182609 62.99230608 -30.70245115 56.08202921 -28.65600586 49.10791016 C-27.79043703 46.326622 -26.75207518 43.62545399 -25.70556641 40.90820312 C-24.53377021 37.73908235 -23.61614114 34.49631241 -22.6875 31.25 C-22.37111572 30.1815686 -22.37111572 30.1815686 -22.04833984 29.09155273 C-20.81624433 24.91851442 -19.66728619 20.73525621 -18.58984375 16.51953125 C-18.34596924 15.61106445 -18.10209473 14.70259766 -17.85083008 13.76660156 C-17.37458519 11.99233706 -16.92172486 10.21159545 -16.49487305 8.42480469 C-15.84907934 6.07722886 -15.2397996 4.09638315 -14 2 C-9.3081744 -0.1200888 -5.1065798 -0.20843183 0 0 Z " fill="#274B67" transform="translate(782,484)"/>
<path d="M0 0 C0.99386719 0.00902344 1.98773437 0.01804687 3.01171875 0.02734375 C4.15060547 0.04474609 4.15060547 0.04474609 5.3125 0.0625 C1.16318676 19.2178247 -4.06353104 37.95606843 -10.45996094 56.4765625 C-12.7483182 63.16140569 -14.96527818 69.87023299 -17.1937561 76.57522583 C-18.71616427 81.15386017 -20.24223411 85.73127825 -21.7706604 90.3079071 C-22.71478141 93.13614266 -23.65579113 95.9651066 -24.57885742 98.80029297 C-32.56583566 123.30078063 -45.09018444 148.45067075 -68.6875 161.0625 C-82.54214613 167.31891546 -101.03083789 170.57012994 -115.875 165.4375 C-117.50592793 164.70254362 -119.11219288 163.91014042 -120.6875 163.0625 C-121.58984375 162.59199219 -122.4921875 162.12148438 -123.421875 161.63671875 C-127.9703268 159.09300365 -132.04731666 156.71425161 -134.6875 152.0625 C-134.3575 151.0725 -134.0275 150.0825 -133.6875 149.0625 C-133.15382813 149.25585938 -132.62015625 149.44921875 -132.0703125 149.6484375 C-113.46252427 156.15150536 -97.05065004 154.92839825 -79.0390625 146.78125 C-48.07147933 130.90043812 -38.67490564 96.05123561 -28.77175903 65.39562988 C-27.27079623 60.77341697 -25.67833774 56.19690863 -24.01953125 51.62890625 C-21.96099038 45.9350002 -20.21224704 40.21542011 -18.625 34.375 C-16.84995788 27.9883791 -14.95678214 21.75031106 -12.5546875 15.56640625 C-11.17996535 11.59705084 -10.34650851 7.50789516 -9.49609375 3.3984375 C-9.22925781 2.62757813 -8.96242188 1.85671875 -8.6875 1.0625 C-5.53819107 0.01273036 -3.29935544 -0.03881595 0 0 Z " fill="#274B67" transform="translate(642.6875,484.9375)"/>
<path d="M0 0 C-0.74582945 5.82924597 -2.5116512 11.28326559 -4.25 16.875 C-4.56501465 17.89859619 -4.8800293 18.92219238 -5.20458984 19.97680664 C-6.13202902 22.98591019 -7.06493579 25.99325826 -8 29 C-8.24331055 29.78391113 -8.48662109 30.56782227 -8.73730469 31.37548828 C-9.75555132 34.65358067 -10.78013385 37.92943759 -11.8125 41.203125 C-12.66163491 43.91812214 -13.49493265 46.63495204 -14.3125 49.359375 C-14.53212402 50.08326416 -14.75174805 50.80715332 -14.97802734 51.55297852 C-15.39523215 52.92943952 -15.80740249 54.30744142 -16.21337891 55.68725586 C-17.83271889 60.99509248 -20.01526611 64.82312291 -23.5625 69.0625 C-27.17704455 73.41848959 -28.20281046 75.54350214 -27.81933594 81.27832031 C-27.11014084 92.55714894 -30.40952084 102.07081323 -34.14990234 112.58691406 C-35.20295089 115.57609609 -36.14616644 118.59135104 -37.0625 121.625 C-37.36414063 122.60984375 -37.66578125 123.5946875 -37.9765625 124.609375 C-38.79036067 127.30546971 -39.59666926 130.00344608 -40.3984375 132.703125 C-43.07660205 141.70977604 -45.83966716 150.66110231 -48.8515625 159.5625 C-50.29725373 163.88973905 -51.63717556 168.24473301 -52.96484375 172.609375 C-53.71945078 175.08106897 -54.48162184 177.54946735 -55.25390625 180.015625 C-55.57633301 181.04695557 -55.57633301 181.04695557 -55.90527344 182.09912109 C-56.34018854 183.48109129 -56.77957853 184.8616619 -57.22363281 186.24072266 C-58.16654465 189.19110099 -59.02177972 192.10214817 -59.66796875 195.1328125 C-60.22272198 197.68691127 -60.77715035 199.69499235 -62 202 C-63.6628418 202.953125 -63.6628418 202.953125 -65.76171875 203.5625 C-66.56947754 203.79880127 -67.37723633 204.03510254 -68.20947266 204.27856445 C-73.63994286 205.68250491 -79.08673417 206.97233005 -84.5625 208.1875 C-86.33270508 208.59645508 -86.33270508 208.59645508 -88.13867188 209.01367188 C-94.22676698 210.37301712 -99.76093691 211.34704306 -106 211 C-105.75287796 208.62762843 -105.41993285 206.34386282 -105 204 C-104.91210205 203.33419922 -104.8242041 202.66839844 -104.73364258 201.98242188 C-104.16534594 199.516714 -103.56803306 198.00624113 -102 196 C-97.82124885 194.08511024 -93.50412836 193.32156848 -89 192.5 C-87.79859375 192.24992188 -86.5971875 191.99984375 -85.359375 191.7421875 C-76.82074176 190 -76.82074176 190 -73 190 C-72.87399414 189.30575928 -72.74798828 188.61151855 -72.61816406 187.89624023 C-71.53813762 182.83606897 -69.89329169 177.93802417 -68.35400391 173.00170898 C-67.76189928 171.10070372 -67.1758088 169.19782857 -66.58984375 167.29492188 C-64.65054883 161.05220828 -62.62216138 154.86490234 -60.39453125 148.71875 C-58.3288266 143.01257209 -56.54265774 137.28781056 -54.9375 131.4375 C-54.4306476 129.62863695 -53.92283674 127.82004219 -53.4140625 126.01171875 C-53.17333008 125.15368652 -52.93259766 124.2956543 -52.68457031 123.41162109 C-50.81263206 116.81711108 -48.76671859 110.27727791 -46.58984375 103.77734375 C-44.92659765 98.80468829 -43.33385922 93.81091873 -41.75 88.8125 C-41.12896823 86.85544908 -40.50787273 84.89841838 -39.88671875 82.94140625 C-39.5726709 81.95156738 -39.25862305 80.96172852 -38.93505859 79.94189453 C-38.04984164 77.15681248 -37.16058899 74.37306184 -36.26953125 71.58984375 C-33.11435483 61.72494793 -30.02531874 51.84303775 -27 41.9375 C-23.73161269 31.24643934 -20.30061251 20.61808745 -16.68432617 10.03955078 C-16.06910326 8.20595385 -15.49844568 6.35754741 -14.93359375 4.5078125 C-14 2 -14 2 -11.9375 0.625 C-7.93179226 -0.22727824 -4.07836819 -0.15993601 0 0 Z " fill="#284B68" transform="translate(226,405)"/>
<path d="M0 0 C6.6 0.6 6.6 0.6 9 3 C7.81066917 19.84885339 -5.74740399 37.45944385 -17 49 C-17.825 49.86625 -18.65 50.7325 -19.5 51.625 C-20.325 52.40875 -21.15 53.1925 -22 54 C-22.59683594 54.59167969 -23.19367188 55.18335938 -23.80859375 55.79296875 C-30.26358851 61.91633075 -38.93383265 68.46381949 -47.71484375 70.6875 C-51.50475086 72.86426716 -52.04516164 76.61019725 -53.3125 80.625 C-59.36552324 98.32774424 -67.78325112 114.55299417 -81 128 C-81.95519531 128.97453125 -81.95519531 128.97453125 -82.9296875 129.96875 C-92.65517127 139.16962262 -105.66720849 143.89692308 -118.9375 144.4375 C-130.02992765 144.10356566 -140.72372066 140.2319762 -148.66015625 132.3515625 C-152 128.53725627 -152 128.53725627 -152 126 C-148.67997432 126.60310872 -145.61805376 127.44849894 -142.4375 128.5625 C-128.3819045 132.77710249 -113.09898559 129.02413523 -100.453125 122.26171875 C-82.80041158 111.34595895 -74.29045994 92.26958535 -66.48046875 73.953125 C-66.05330566 72.9542627 -65.62614258 71.95540039 -65.18603516 70.92626953 C-64.41695973 69.02875243 -63.70410527 67.10708961 -63.06005859 65.16357422 C-61.57096318 60.76900561 -60.50653216 57.81097008 -56.390625 55.4140625 C-55.02555409 54.78382861 -53.64438143 54.18741779 -52.25 53.625 C-51.57195312 53.32207031 -50.89390625 53.01914062 -50.1953125 52.70703125 C-48.82302064 52.09393508 -47.44681251 51.48953219 -46.06689453 50.89379883 C-39.24739001 47.94480213 -34.0109404 44.72696381 -28.625 39.5625 C-27.9750708 38.94342773 -27.3251416 38.32435547 -26.65551758 37.68652344 C-15.99480372 27.32278378 -8.74845492 15.64308982 -1.87280273 2.55957031 C-1 1 -1 1 0 0 Z " fill="#284C68" transform="translate(932,504)"/>
<path d="M0 0 C10.47523547 9.24285483 16.20958146 23.76865331 17.17724609 37.51855469 C17.66576474 49.01626364 17.32071127 59.92199964 14 71 C13.67128906 72.1446875 13.34257812 73.289375 13.00390625 74.46875 C6.81046099 93.84201823 -7.50841256 111.45462924 -25.18359375 121.55078125 C-39.52714986 128.93144605 -54.0176532 132.52881941 -70.1484375 129.38671875 C-76.35380197 127.16492421 -81.74095575 123.01003515 -86 118 C-86 117.01 -86 116.02 -86 115 C-84.54119891 115.14107747 -83.08296449 115.28802415 -81.625 115.4375 C-80.40683594 115.55931641 -80.40683594 115.55931641 -79.1640625 115.68359375 C-77 116 -77 116 -75 117 C-57.6810734 118.82777599 -40.83614517 111.90808701 -27 102 C-10.64987847 88.76994604 -1.81033708 73.96378159 4 54 C4.37769531 52.74832031 4.75539063 51.49664062 5.14453125 50.20703125 C6.43797179 44.84443599 6.38246979 39.42738066 6.375 33.9375 C6.37483887 32.83365967 6.37467773 31.72981934 6.37451172 30.5925293 C6.25203807 21.78796337 4.9656807 14.28009393 2 6 C1.332643 4.00023024 0.66576691 2.00029969 0 0 Z " fill="#274B67" transform="translate(296,396)"/>
<path d="M0 0 C2.58615313 2.48703227 4.99208554 5.01896658 7 8 C7 8.66 7 9.32 7 10 C4.03662755 8.88873533 1.34860594 7.64469415 -1.4375 6.125 C-21.63532766 -4.16664119 -47.47598318 -3.56268768 -68.63671875 3.17871094 C-84.29423156 8.62002014 -97.90350203 18.16721571 -106 33 C-109.95167822 41.82163153 -112.04047681 49.73636966 -112.5625 59.3125 C-112.60568359 60.05306641 -112.64886719 60.79363281 -112.69335938 61.55664062 C-112.79870432 63.37091464 -112.89978316 65.1854355 -113 67 C-117.61936553 65.5698322 -117.61936553 65.5698322 -119.328125 63.01171875 C-119.63234375 62.24472656 -119.9365625 61.47773438 -120.25 60.6875 C-120.56453125 59.92824219 -120.8790625 59.16898437 -121.203125 58.38671875 C-125.0432605 46.88513644 -123.32044471 34.69236358 -118.59375 23.7421875 C-110.61144088 7.81522166 -96.98199061 -4.27693545 -80 -10 C-52.82086642 -18.11578855 -23.44999524 -17.93667347 0 0 Z " fill="#284B67" transform="translate(246,391)"/>
<path d="M0 0 C1.49080078 0.02707031 1.49080078 0.02707031 3.01171875 0.0546875 C3.77097656 0.07789063 4.53023438 0.10109375 5.3125 0.125 C4.70559597 5.05654003 3.71354508 9.61964356 2.30859375 14.40234375 C2.10702164 15.09018448 1.90544952 15.77802521 1.69776917 16.48670959 C1.268907 17.94553518 0.83762263 19.40365063 0.40405273 20.86108398 C-0.23023162 22.99596343 -0.85503044 25.13343007 -1.47851562 27.27148438 C-3.96957135 35.74333794 -6.66894141 44.12925957 -9.4921875 52.49609375 C-14.04025147 65.99232337 -18.15388147 79.61108237 -22.25 93.25 C-30.48465532 120.61490584 -30.48465532 120.61490584 -34.52734375 133.5546875 C-34.80357071 134.45478546 -35.07979767 135.35488342 -35.36439514 136.28225708 C-36.71120948 140.55191816 -37.99665603 144.47894293 -40.6875 148.125 C-42.87890625 148.90234375 -42.87890625 148.90234375 -45.25 149.0625 C-46.03503906 149.13339844 -46.82007813 149.20429687 -47.62890625 149.27734375 C-49.6875 149.125 -49.6875 149.125 -51.6875 147.125 C-52.18717651 140.89615588 -51.03094653 135.89670717 -49.125 130 C-48.8554248 129.13600586 -48.58584961 128.27201172 -48.30810547 127.38183594 C-47.44514351 124.62610085 -46.56641888 121.87568158 -45.6875 119.125 C-45.12791266 117.34145727 -44.56931183 115.55760471 -44.01171875 113.7734375 C-41.29931315 105.13485327 -38.49736304 96.53082261 -35.60107422 87.95214844 C-32.69847412 79.35215509 -29.95392207 70.77218448 -27.62280273 62 C-25.58725645 54.47685096 -23.06485738 47.12558105 -20.56518555 39.74633789 C-18.39898136 33.3301885 -16.43084194 26.91105971 -14.6171875 20.38671875 C-13.51714001 16.52730844 -12.3491518 12.69666454 -11.125 8.875 C-10.73183594 7.63234375 -10.33867187 6.3896875 -9.93359375 5.109375 C-7.80169588 0.00351301 -5.07410883 -0.1193908 0 0 Z " fill="#274B66" transform="translate(382.6875,386.875)"/>
<path d="M0 0 C-0.97081106 9.5463088 -0.97081106 9.5463088 -3 13 C-6.29899747 14.04988069 -9.50965248 14.4477384 -12.93359375 14.93359375 C-16.20236117 15.72778459 -16.20236117 15.72778459 -17.80078125 18.66015625 C-19.0314853 22.08768708 -19.93903272 25.45010551 -20.75 29 C-23.8385619 41.3174059 -28.66671681 52.34288754 -39.9140625 59.16015625 C-42.45815751 60.18446416 -44.4527692 60.23193433 -47.1875 60.1875 C-48.06792969 60.18105469 -48.94835937 60.17460938 -49.85546875 60.16796875 C-52 60 -52 60 -53 59 C-54.63546228 43.70946278 -53.00907233 28.6646313 -43.66015625 15.9921875 C-37.6398292 8.76779504 -31.50940254 2.84563265 -22 1 C-20.14761924 0.90859079 -18.29212791 0.86995339 -16.4375 0.875 C-15.48746094 0.87242187 -14.53742187 0.86984375 -13.55859375 0.8671875 C-11 1 -11 1 -8 2 C-2.66666667 0 -2.66666667 0 0 0 Z " fill="#FAFBFA" transform="translate(615,463)"/>
<path d="M0 0 C-0.33 3.63 -0.66 7.26 -1 11 C-6.7 12.95 -6.7 12.95 -9.40527344 13.40087891 C-12.23595707 13.96412171 -14.46220265 14.61110966 -17 16 C-19.15430364 19.29294272 -19.97381324 22.75999252 -20.875 26.5625 C-21.38949785 28.48147305 -21.90771262 30.39945351 -22.4296875 32.31640625 C-22.68049072 33.26136963 -22.93129395 34.20633301 -23.18969727 35.17993164 C-25.87287627 44.51810601 -29.55817642 52.50503866 -37.7578125 58.2265625 C-42.21490765 60.44474474 -47.13595526 60.54276894 -52 60 C-54.66579077 57.33420923 -53.31147973 49.86212719 -53.31689453 46.28173828 C-53.21538042 38.87120839 -52.21582322 32.74220881 -49 26 C-48.36384766 24.59041016 -48.36384766 24.59041016 -47.71484375 23.15234375 C-43.18578083 13.98067594 -36.4388207 6.149308 -27.02734375 1.79296875 C-21.62985324 0.37917446 -16.19841027 0.68879839 -10.66015625 0.921875 C-6.818817 1.0038673 -3.86288004 0 0 0 Z " fill="#FAFBFA" transform="translate(749,463)"/>
<path d="M0 0 C0.90105469 0.00902344 1.80210937 0.01804687 2.73046875 0.02734375 C3.41753906 0.03894531 4.10460937 0.05054688 4.8125 0.0625 C4.28057718 7.17423522 2.65360497 13.32389238 0.375 20.0625 C-0.35152248 22.26738592 -1.07533577 24.47316581 -1.796875 26.6796875 C-2.18294922 27.86014648 -2.56902344 29.04060547 -2.96679688 30.25683594 C-5.41502491 37.88943164 -7.69729025 45.57362825 -9.99240112 53.25341797 C-11.37029474 57.8628457 -12.76405875 62.46691766 -14.1875 67.0625 C-14.40051758 67.75066803 -14.61353516 68.43883606 -14.83300781 69.14785767 C-15.47578128 71.20496557 -16.13200313 73.25726703 -16.79296875 75.30859375 C-17.17735107 76.51185303 -17.5617334 77.7151123 -17.95776367 78.95483398 C-19.78426795 83.57059197 -22.25448791 86.15454282 -26.1875 89.0625 C-27.14269531 89.784375 -28.09789062 90.50625 -29.08203125 91.25 C-31.75763907 93.22836984 -34.45672492 95.16132748 -37.1875 97.0625 C-38.45915248 93.24754255 -37.68617455 91.88827248 -36.37890625 88.12109375 C-35.96543945 86.91050293 -35.55197266 85.69991211 -35.12597656 84.45263672 C-34.90171997 83.80872986 -34.67746338 83.164823 -34.44641113 82.50140381 C-33.26377075 79.10263425 -32.11185416 75.69345684 -30.95703125 72.28515625 C-30.72168671 71.59276855 -30.48634216 70.90038086 -30.24386597 70.18701172 C-28.02584497 63.63923509 -25.95492835 57.04979363 -23.9375 50.4375 C-23.61442871 49.37917969 -23.29135742 48.32085937 -22.95849609 47.23046875 C-20.6721233 39.70824377 -18.40740172 32.17908916 -16.17675781 24.64013672 C-14.62216432 19.40907801 -12.93589176 14.23173685 -11.1875 9.0625 C-10.94153076 8.30509521 -10.69556152 7.54769043 -10.44213867 6.76733398 C-9.7800051 4.83277292 -8.99296117 2.9419094 -8.1875 1.0625 C-5.17259443 0.05753148 -3.14568308 -0.04085303 0 0 Z " fill="#274C68" transform="translate(916.1875,447.9375)"/>
<path d="M0 0 C0.30966821 5.73263825 -0.72561306 10.15579235 -2.5625 15.5625 C-3.11598048 17.25387514 -3.66936192 18.9452827 -4.22265625 20.63671875 C-4.65989014 21.95422119 -4.65989014 21.95422119 -5.10595703 23.29833984 C-6.60041251 27.81435413 -8.05259727 32.34372029 -9.5 36.875 C-9.79245605 37.78894531 -10.08491211 38.70289063 -10.38623047 39.64453125 C-12.97720197 47.80272566 -15.32875647 56.02139969 -17.65625 64.2578125 C-18.80615519 68.32633299 -19.97513573 72.3871012 -21.1875 76.4375 C-21.61095703 77.85869141 -21.61095703 77.85869141 -22.04296875 79.30859375 C-23.13906361 82.39108094 -24.33953299 85.17720609 -26 88 C-29.4375 89.125 -29.4375 89.125 -33 89 C-35.4375 87.5 -35.4375 87.5 -37 85 C-37.83196476 77.91361779 -35.31729189 71.45770241 -33.25 64.75 C-32.90195312 63.58597656 -32.55390625 62.42195313 -32.1953125 61.22265625 C-30.29310698 54.93128762 -28.20669963 48.75190582 -25.91992188 42.59130859 C-24.44315984 38.43144866 -23.28775141 34.19369384 -22.125 29.9375 C-19.4028173 20.17668203 -16.29848284 10.57963633 -13 1 C-8.60650347 0.33653501 -4.44674297 -0.10845715 0 0 Z " fill="#264A65" transform="translate(509,448)"/>
<path d="M0 0 C1.54413004 1.12213177 2.96471793 2.21471793 4.3125 3.5625 C4.35330783 5.56208364 4.35504356 7.56295254 4.3125 9.5625 C3.49007812 9.64886719 2.66765625 9.73523438 1.8203125 9.82421875 C-8.7820042 11.15869048 -17.2828916 13.98574227 -24.734375 21.921875 C-32.86218527 32.91067448 -36.86747589 44.93603608 -37.3125 58.5 C-37.37050781 59.9550293 -37.37050781 59.9550293 -37.4296875 61.43945312 C-37.52325076 63.81362076 -37.60899208 66.18779492 -37.6875 68.5625 C-41.20603108 66.68672681 -43.26154877 65.33766497 -44.9375 61.6875 C-45.25203125 61.03007813 -45.5665625 60.37265625 -45.890625 59.6953125 C-50.28168432 47.94277138 -48.31656795 32.99543033 -43.46875 21.73046875 C-38.39982559 11.66302166 -31.29979056 2.92510511 -20.6875 -1.4375 C-13.91301967 -3.56582749 -6.11076944 -3.83442495 0 0 Z " fill="#274B66" transform="translate(733.6875,453.4375)"/>
<path d="M0 0 C2.21689042 1.54800107 2.91096021 2.73004435 3.8125 5.265625 C3.8125 6.585625 3.8125 7.905625 3.8125 9.265625 C2.79542969 9.41257812 2.79542969 9.41257812 1.7578125 9.5625 C-10.67813174 11.56051874 -18.72289527 15.43161428 -27.375 24.578125 C-34.44987481 35.06845662 -37.56621129 45.82733575 -37.875 58.390625 C-37.90916016 59.34710937 -37.94332031 60.30359375 -37.97851562 61.2890625 C-38.05990474 63.61446573 -38.12939612 65.93954376 -38.1875 68.265625 C-43.0658297 65.43253304 -45.41487801 63.55235969 -47.25390625 58.109375 C-50.83674285 43.35828207 -47.80428905 28.12445364 -40.1875 15.265625 C-35.12609258 7.30844904 -28.69188588 1.90314323 -20.1875 -2.171875 C-12.76957779 -3.56273541 -6.90201164 -3.10590524 0 0 Z " fill="#274B66" transform="translate(600.1875,453.734375)"/>
<path d="M0 0 C0.66 0.66 1.32 1.32 2 2 C1.01 3.485 1.01 3.485 0 5 C-0.33338596 8.54187831 -0.33338596 8.54187831 0 12 C0.66 12.66 1.32 13.32 2 14 C4.97604952 13.79475521 6.17238213 12.85778474 8.5 10.9375 C11 9 11 9 15 9 C13.16556122 13.71712828 13.16556122 13.71712828 11.89086914 15.89501953 C10.80129222 18.46951452 11.08184881 19.71368188 11.62109375 22.4296875 C12.46514738 29.19951973 10.28785998 34.79835676 8.0625 41.125 C7.67642578 42.27226562 7.29035156 43.41953125 6.89257812 44.6015625 C5.94559615 47.40743503 4.98126287 50.20597132 4 53 C1.03 52.67 -1.94 52.34 -5 52 C-5.74443359 53.55847656 -5.74443359 53.55847656 -6.50390625 55.1484375 C-10.42711745 63.24765666 -14.45676559 70.86139568 -20 78 C-20.48726563 78.639375 -20.97453125 79.27875 -21.4765625 79.9375 C-22.58919199 81.34292673 -23.78560346 82.68151233 -25 84 C-25.66 84 -26.32 84 -27 84 C-25.35394275 73.93731038 -22.07165599 64.42460121 -18.9375 54.75 C-17.75803502 51.08711372 -16.58294599 47.42284118 -15.41015625 43.7578125 C-15.11854614 42.84724091 -14.82693604 41.93666931 -14.52648926 40.99850464 C-12.69864409 35.26542017 -10.93761735 29.516911 -9.24609375 23.7421875 C-8.93686226 22.68952698 -8.93686226 22.68952698 -8.62138367 21.61560059 C-7.66873055 18.36422478 -6.72896535 15.1101321 -5.80444336 11.85058594 C-5.47452393 10.7165332 -5.14460449 9.58248047 -4.8046875 8.4140625 C-4.38678955 6.94380615 -4.38678955 6.94380615 -3.96044922 5.44384766 C-2.98066753 2.95080884 -2.0337239 1.70300217 0 0 Z " fill="#F6F8F7" transform="translate(371,449)"/>
<path d="M0 0 C1.94057779 1.94057779 2.89263752 3.45591809 4.125 5.875 C4.47820312 6.55304687 4.83140625 7.23109375 5.1953125 7.9296875 C6 10 6 10 6 14 C-3.94449277 29.98527348 -18.79179836 41.6647139 -37 46 C-43.74655363 46.84792751 -50.22287597 46.9647715 -56.2109375 43.41015625 C-59.61647231 40.725881 -62.6159422 37.62823796 -65 34 C-65 33.01 -65 32.02 -65 31 C-64.49984375 31.1546875 -63.9996875 31.309375 -63.484375 31.46875 C-50.59442958 34.22509053 -39.1781798 31.6251791 -28 25 C-25.4775502 23.26537416 -23.13233438 21.47036384 -20.80859375 19.48046875 C-19 18 -19 18 -15.9375 16.5625 C-9.04626371 12.89694878 -4.25874447 6.3881167 0 0 Z " fill="#294C67" transform="translate(509,530)"/>
<path d="M0 0 C4.98180592 2.27203701 7.93764084 5.94677366 10 11 C10.30078125 13.8125 10.30078125 13.8125 10.3125 17 C10.33763672 18.546875 10.33763672 18.546875 10.36328125 20.125 C9.41382583 30.25252447 5.83347716 40.00518547 2.6875 49.625 C2.29159668 50.84179443 1.89569336 52.05858887 1.48779297 53.31225586 C0.6955807 55.74405484 -0.09832276 58.17530363 -0.89404297 60.60595703 C-1.88206139 63.63806126 -2.85320402 66.67478783 -3.81640625 69.71484375 C-4.33559812 71.33083824 -4.8551017 72.94673264 -5.375 74.5625 C-5.60098877 75.28711426 -5.82697754 76.01172852 -6.05981445 76.75830078 C-8.08889191 82.9771531 -8.08889191 82.9771531 -11 85 C-14.11811483 85.38976435 -16.11019567 85.50422245 -18.875 83.9375 C-21.1401497 80.03640886 -20.1200752 75.5671894 -19.22265625 71.328125 C-18.84716178 69.96560686 -18.45963884 68.6063674 -18.0625 67.25 C-17.84722656 66.49122559 -17.63195312 65.73245117 -17.41015625 64.95068359 C-15.32401565 57.76965478 -12.90386901 50.70446626 -10.5 43.625 C-7.73271272 35.45673528 -5.1048192 27.30367357 -3 18.9375 C-2.80470703 18.17195801 -2.60941406 17.40641602 -2.40820312 16.61767578 C-1.08384957 11.11530207 -0.44671022 5.63751235 0 0 Z " fill="#274A65" transform="translate(426,449)"/>
<path d="M0 0 C0.99 0 1.98 0 3 0 C5.9218523 13.75775024 5.9218523 13.75775024 3.9609375 18.52734375 C2.12908969 20.65002995 0.21580736 22.28116124 -2 24 C-3.25490234 25.13695312 -3.25490234 25.13695312 -4.53515625 26.296875 C-14.90649067 35.42961841 -26.4586329 40.55684561 -40.32421875 40.25 C-47.28335626 39.59980321 -52.01216449 36.75031954 -57 32 C-59 29 -59 29 -59 26 C-57.77925781 26.05800781 -56.55851562 26.11601563 -55.30078125 26.17578125 C-39.83807927 26.6908896 -28.63234941 23.28719765 -16 14 C-14.98933109 13.01078397 -13.98700524 12.01282805 -13 11 C-11.33720673 9.9935725 -9.67016516 8.99414593 -8 8 C-5.36934006 6.05832242 -3.29214875 4.40451366 -1.375 1.75 C-0.92125 1.1725 -0.4675 0.595 0 0 Z " fill="#294C68" transform="translate(363,536)"/>
<path d="M0 0 C5.88290432 4.10997425 8.68662091 7.90065355 10 15 C11.65148016 27.83967671 5.40890432 41.63982709 1.7565918 53.77539062 C0.93126734 56.52073218 0.11288683 59.2680829 -0.70507812 62.015625 C-1.23135598 63.77095777 -1.7580341 65.52617059 -2.28515625 67.28125 C-2.52790787 68.09791138 -2.77065948 68.91457275 -3.02076721 69.75598145 C-3.2511821 70.5177771 -3.48159698 71.27957275 -3.71899414 72.06445312 C-3.91868301 72.72997192 -4.11837189 73.39549072 -4.32411194 74.08117676 C-5.05487168 76.15577885 -5.97924713 78.05374804 -7 80 C-14.38052027 80.48396854 -14.38052027 80.48396854 -17 78.4375 C-19.76294903 71.70281173 -17.0472904 65.31799544 -14.75 58.875 C-14.09933079 56.98599704 -13.44958672 55.09667515 -12.80078125 53.20703125 C-12.48705566 52.30291504 -12.17333008 51.39879883 -11.85009766 50.46728516 C-10.08796688 45.35295613 -8.51288284 40.19271441 -7 35 C-6.63793457 33.77579346 -6.63793457 33.77579346 -6.26855469 32.52685547 C-1.56709073 16.5345816 -1.56709073 16.5345816 0 0 Z " fill="#264B66" transform="translate(837,449)"/>
<path d="M0 0 C3.96204638 0.9056106 5.64657618 2.52648414 7.8125 5.8125 C9.64836273 8.97778056 10.67761737 11.27310447 10 15 C9 16 9 16 5.3125 16.25 C1.69206248 16.70901976 -0.89079416 17.58292607 -3.62109375 20.171875 C-9.2320505 27.61076384 -10.92609444 36.95995916 -12 46 C-20.33333333 47.66666667 -28.66666667 49.33333333 -37 51 C-37.07749439 41.65639013 -37.07749439 41.65639013 -35 38 C-30.72044676 35.77228736 -26.80397779 35 -22 35 C-21.97421875 34.20078125 -21.9484375 33.4015625 -21.921875 32.578125 C-21.44674139 23.37781051 -20.71285462 13.08631421 -13.8125 6.25 C-9.79131037 3.26033292 -5.81897255 3.40992173 -1 4 C-0.67 2.68 -0.34 1.36 0 0 Z " fill="#274A65" transform="translate(651,424)"/>
<path d="M0 0 C3.46628726 0.96285757 4.93417008 1.92349495 7.3125 4.6875 C9.22487823 8.44142764 9.33242149 10.84473143 9 15 C8.34773437 15.12375 7.69546875 15.2475 7.0234375 15.375 C1.38158179 16.70641138 -2.42416743 18.17283542 -5.6953125 23.0703125 C-7.89030607 27.99919027 -9.09640044 33.21567684 -10.26489258 38.47265625 C-10.44947021 39.28347656 -10.63404785 40.09429687 -10.82421875 40.9296875 C-10.97979248 41.66429199 -11.13536621 42.39889648 -11.2956543 43.15576172 C-12 45 -12 45 -15 47 C-17.02714151 47.42957431 -19.07304283 47.77386773 -21.125 48.0625 C-22.27613281 48.22621094 -23.42726563 48.38992188 -24.61328125 48.55859375 C-28.73828525 49.09622403 -32.86146254 49.57913178 -37 50 C-36.88490339 48.58249437 -36.75746342 47.16598831 -36.625 45.75 C-36.55539062 44.96109375 -36.48578125 44.1721875 -36.4140625 43.359375 C-35.9729732 40.84599825 -35.39906059 39.13368438 -34 37 C-29.92893763 35.46375005 -26.34409038 34.7367218 -22 35 C-22.061875 33.9275 -22.12375 32.855 -22.1875 31.75 C-22.17242711 23.26396337 -19.79894877 14.98028912 -15 8 C-14.46375 7.195625 -13.9275 6.39125 -13.375 5.5625 C-9.54359767 3.04184057 -5.45506499 3.69392683 -1 4 C-0.67 2.68 -0.34 1.36 0 0 Z " fill="#274A66" transform="translate(785,424)"/>
<path d="M0 0 C1.34721224 2.62413514 2.56100301 5.24865426 3.625 8 C4.01558594 8.99 4.01558594 8.99 4.4140625 10 C5 12 5 12 5 16 C-3.10110601 25.91140903 -16.55823131 31.64937266 -28.921875 33.41796875 C-35.89306823 33.78228252 -41.29313935 32.00376611 -47 28 C-49.30213597 25.85869189 -51.34034712 23.6783829 -53 21 C-53 20.34 -53 19.68 -53 19 C-51.77925781 19.05800781 -50.55851562 19.11601563 -49.30078125 19.17578125 C-33.61471352 19.69833057 -22.94165087 16.00206009 -10 7 C-8.56140625 6.00806641 -8.56140625 6.00806641 -7.09375 4.99609375 C-4.71867947 3.34488601 -2.3545124 1.68033531 0 0 Z " fill="#2A4C68" transform="translate(431,543)"/>
<path d="M0 0 C1.09420988 3.28262963 0.97611604 3.78755518 -0.14453125 6.87109375 C-0.40943359 7.61037109 -0.67433594 8.34964844 -0.94726562 9.11132812 C-1.23279297 9.87896484 -1.51832031 10.64660156 -1.8125 11.4375 C-2.08642578 12.20126953 -2.36035156 12.96503906 -2.64257812 13.75195312 C-6.20941575 23.58000212 -6.20941575 23.58000212 -9.25 25.1953125 C-20.31599688 28.43337409 -30.51408674 26.95335952 -40.640625 21.60546875 C-45.29876062 18.68256577 -48.8776758 15.53240609 -52 11 C-52 10.01 -52 9.02 -52 8 C-51.505 8.268125 -51.01 8.53625 -50.5 8.8125 C-49.675 9.204375 -48.85 9.59625 -48 10 C-46.88625 10.53625 -45.7725 11.0725 -44.625 11.625 C-33.38915569 15.65411977 -21.48382449 12.81843899 -11 8 C-7.11011053 5.57554124 -3.51198665 2.94247531 0 0 Z " fill="#294D68" transform="translate(577,542)"/>
<path d="M0 0 C0.70125 0.639375 1.4025 1.27875 2.125 1.9375 C1.9375 4.8125 1.9375 4.8125 1.125 7.9375 C-1.12884597 9.30346725 -3.21655803 9.7938892 -5.7734375 10.3515625 C-11.37582395 11.61800235 -15.91298458 13.05810981 -19.3203125 18.05859375 C-21.36828082 21.62205864 -23.02127628 24.89837703 -23.875 28.9375 C-29.35882455 28.45004893 -29.35882455 28.45004893 -31.54296875 26.28125 C-34.21092924 21.58689136 -33.53570718 16.14836042 -32.875 10.9375 C-30.75239832 5.24094506 -26.7711654 1.37523316 -21.875 -2.0625 C-15.59395668 -4.35668954 -5.56453577 -3.77211319 0 0 Z " fill="#274A65" transform="translate(692.875,582.0625)"/>
<path d="M0 0 C1.60035598 4.80106795 -0.4427179 8.79851693 -1.9375 13.5 C-2.34452148 14.94439453 -2.34452148 14.94439453 -2.75976562 16.41796875 C-4.92396367 23.20890966 -4.92396367 23.20890966 -7.78027344 25.30883789 C-15.89073622 28.61342844 -26.30711791 28.37834052 -34.4375 25.375 C-42.14076572 21.7281051 -47.41993741 17.15634779 -52 10 C-51.34 9.67 -50.68 9.34 -50 9 C-48.30331078 9.67227309 -46.60680932 10.34967211 -44.94921875 11.11328125 C-35.28163993 15.51115779 -27.15416468 14.62988029 -17.15625 11.2734375 C-10.50519988 8.58996926 -4.94585716 5.20380436 0 0 Z " fill="#284C68" transform="translate(711,541)"/>
<path d="M0 0 C2.9559532 1.01182852 4.54350605 2.03480484 7 4 C6.125 9.75 6.125 9.75 5 12 C2.99609375 12.45703125 2.99609375 12.45703125 0.4375 12.8125 C-4.86777772 13.83420113 -9.12315662 15.09830506 -13 19 C-15.35539379 22.86022871 -17.24654072 26.8355342 -19 31 C-23.78125 30.234375 -23.78125 30.234375 -25.75 28.125 C-28.43344945 23.56313593 -28.67702597 19.16152495 -27.57421875 14.01171875 C-25.79292395 8.38370145 -22.49780388 4.73913816 -18 1 C-13.05443583 -1.47278209 -5.41566095 -0.41165439 0 0 Z " fill="#264964" transform="translate(554,580)"/>
<path d="M0 0 C0.598125 0.9075 1.19625 1.815 1.8125 2.75 C3.94224941 5.91419912 5.93373561 7.78547572 9 10 C8.03549288 13.85802849 7.11869385 14.92010991 3.75 17.1875 C-4.18706696 21.46550627 -13.10199181 22.75633208 -21.8203125 20.16015625 C-27.86430079 17.41540928 -32.25564356 13.47340177 -36 8 C-36.33 7.01 -36.66 6.02 -37 5 C-31.25 5.875 -31.25 5.875 -29 7 C-17.27308319 7.94998928 -9.24539701 0 0 0 Z " fill="#2A4C69" transform="translate(136,464)"/>
<path d="M0 0 C0.66 0.33 1.32 0.66 2 1 C1.04235345 3.56275853 0.0839064 6.12521289 -0.875 8.6875 C-1.14441406 9.40873047 -1.41382813 10.12996094 -1.69140625 10.87304688 C-1.95566406 11.57880859 -2.21992187 12.28457031 -2.4921875 13.01171875 C-2.73308105 13.65584717 -2.97397461 14.29997559 -3.22216797 14.96362305 C-3.60719482 15.97162964 -3.60719482 15.97162964 -4 17 C-4.24484131 17.86488037 -4.48968262 18.72976074 -4.74194336 19.62084961 C-6 22 -6 22 -8.50268555 23.22607422 C-9.5369165 23.4995166 -10.57114746 23.77295898 -11.63671875 24.0546875 C-12.77173828 24.35890625 -13.90675781 24.663125 -15.07617188 24.9765625 C-16.26791016 25.27304687 -17.45964844 25.56953125 -18.6875 25.875 C-20.44610352 26.35453125 -20.44610352 26.35453125 -22.24023438 26.84375 C-33.35681983 29.73117479 -33.35681983 29.73117479 -39 28 C-41.3984375 26.51171875 -41.3984375 26.51171875 -43.375 24.6875 C-44.04273438 24.09324219 -44.71046875 23.49898437 -45.3984375 22.88671875 C-47.09753629 20.88509749 -47.60350644 19.56587974 -48 17 C-46.700625 17.165 -45.40125 17.33 -44.0625 17.5 C-42.37592077 17.67573998 -40.68835986 17.84228185 -39 18 C-37.93845703 18.10248047 -37.93845703 18.10248047 -36.85546875 18.20703125 C-25.51368463 18.77517257 -14.76340898 13.90190054 -6 7 C-3.75583553 4.76453385 -1.91509183 2.5362027 0 0 Z " fill="#274C69" transform="translate(839,540)"/>
<path d="M0 0 C-1.43295009 6.36229839 -3.62983282 11.29834151 -9.046875 15.1875 C-11.27852344 16.56425739 -13.54004028 17.81862015 -15.84375 19.078125 C-19.08646461 21.05264924 -21.34072755 23.31799873 -24 26 C-27.0625 26.625 -27.0625 26.625 -30 26 C-32.4375 23.9375 -32.4375 23.9375 -34 21 C-34.16027668 16.51225297 -33.6308362 14.67936206 -30.5625 11.375 C-22.03641828 5.21278454 -10.59037146 0 0 0 Z " fill="#294C66" transform="translate(824,582)"/>
<path d="M0 0 C-0.91771116 7.43479044 -6.50794637 12.91481227 -12.0625 17.5625 C-15.41050839 19.20088709 -18.29990422 19.70399234 -22 20 C-22.84364274 14.51632216 -20.86018256 11.3634081 -17.77734375 7.0546875 C-13.03270832 1.56968039 -7.10690707 0 0 0 Z " fill="#F2F6F6" transform="translate(692,591)"/>
<path d="M0 0 C-2.31 5.61 -4.62 11.22 -7 17 C-10.98300973 16.00424757 -14.26137967 14.65362053 -18 13 C-17.896875 11.9275 -17.79375 10.855 -17.6875 9.75 C-17.59653401 5.88695384 -17.59653401 5.88695384 -20.375 3.6875 C-21.24125 3.130625 -22.1075 2.57375 -23 2 C-23.66 1.34 -24.32 0.68 -25 0 C-23.10314453 0.01740234 -23.10314453 0.01740234 -21.16796875 0.03515625 C-19.50781398 0.04453566 -17.84765761 0.0536357 -16.1875 0.0625 C-15.35412109 0.07087891 -14.52074219 0.07925781 -13.66210938 0.08789062 C-12.45844727 0.09272461 -12.45844727 0.09272461 -11.23046875 0.09765625 C-10.49207764 0.10289307 -9.75368652 0.10812988 -8.99291992 0.11352539 C-1.29901227 -0.32475307 -1.29901227 -0.32475307 0 0 Z " fill="#F3F5F5" transform="translate(704,567)"/>
<path d="M0 0 C-3.28730051 7.67036785 -7.96909428 14.460497 -15.8125 18 C-19 19 -19 19 -22 19 C-21.75233006 12.0652418 -19.87336662 7.97632507 -15 3 C-10.14708607 -0.45096102 -5.73039855 -0.34382391 0 0 Z " fill="#F3F5F5" transform="translate(558,593)"/>
<path d="M0 0 C-1.82221376 6.61242722 -4.05223604 12.80520671 -7 19 C-8.68272986 18.37498605 -10.34630643 17.69822617 -12 17 C-13.3303125 16.4740625 -13.3303125 16.4740625 -14.6875 15.9375 C-17.79203822 13.33640041 -17.9111027 11.06510219 -18.4453125 7.15625 C-19.0931492 4.63789887 -20.03848709 3.65403251 -22 2 C-21.09121094 2.03480469 -21.09121094 2.03480469 -20.1640625 2.0703125 C-14.55798131 2.19105886 -9.49871868 1.68325236 -4.03125 0.4375 C-2 0 -2 0 0 0 Z " fill="#F2F4F4" transform="translate(570,566)"/>
<path d="M0 0 C0.33 0 0.66 0 1 0 C1 3.3 1 6.6 1 10 C2.65 9.34 4.3 8.68 6 8 C-5.61870932 46.98127425 -5.61870932 46.98127425 -11 63 C-11.33 62.34 -11.66 61.68 -12 61 C-13.98 61 -15.96 61 -18 61 C-17.48050781 60.12859375 -16.96101563 59.2571875 -16.42578125 58.359375 C-7.04580213 42.42354492 -1.34997916 27.12621534 -0.4375 8.5625 C-0.39431641 7.73556641 -0.35113281 6.90863281 -0.30664062 6.05664062 C-0.20161967 4.03790451 -0.10041441 2.01897049 0 0 Z " fill="#EBEFEE" transform="translate(313,435)"/>
<path d="M0 0 C1.32 0.66 2.64 1.32 4 2 C-1.48368058 13.30585996 -7.3931514 22.83127998 -16 32 C-17.08667969 33.17175781 -17.08667969 33.17175781 -18.1953125 34.3671875 C-22.43298546 38.77104372 -27.00174658 42.49058802 -32 46 C-32.66 45.67 -33.32 45.34 -34 45 C-33.26136719 44.44054687 -32.52273438 43.88109375 -31.76171875 43.3046875 C-17.55097829 32.07332719 -6.33154818 17.0918995 0 0 Z " fill="#ECEFF0" transform="translate(926,506)"/>
<path d="M0 0 C-0.18334961 1.87719727 -0.18334961 1.87719727 -1 4 C-3.18969727 5.10913086 -3.18969727 5.10913086 -6.06640625 5.96484375 C-7.10990234 6.29033203 -8.15339844 6.61582031 -9.22851562 6.95117188 C-10.32873047 7.27666016 -11.42894531 7.60214844 -12.5625 7.9375 C-19.41144046 9.9901254 -25.60353146 11.90334896 -31.49194336 16.04907227 C-33 17 -33 17 -35 17 C-32.35441966 10.96963304 -27.58081003 8.09534379 -21.640625 5.57421875 C-6.31563422 0 -6.31563422 0 0 0 Z " fill="#E7EDEF" transform="translate(827,577)"/>
<path d="M0 0 C0.33 0 0.66 0 1 0 C1 10.23 1 20.46 1 31 C-0.32 30.67 -1.64 30.34 -3 30 C-4.27328905 26.09928911 -4.14732046 22.17988424 -4.125 18.125 C-4.12886719 17.43019531 -4.13273438 16.73539063 -4.13671875 16.01953125 C-4.12899486 11.91814433 -3.96514104 7.99495087 -3 4 C-2.34 3.67 -1.68 3.34 -1 3 C-0.67 2.01 -0.34 1.02 0 0 Z " fill="#427499" transform="translate(783,516)"/>
<path d="M0 0 C-0.680625 0.639375 -1.36125 1.27875 -2.0625 1.9375 C-5.77342473 5.62709757 -8.8501349 9.83346374 -12 14 C-12.66 13.34 -13.32 12.68 -14 12 C-14.33 12.99 -14.66 13.98 -15 15 C-15.66 15 -16.32 15 -17 15 C-15.77292888 8.98735149 -13.42782311 5.25937332 -9 1 C-6.04335481 -0.4783226 -3.25770263 -0.06032783 0 0 Z " fill="#ECF1F3" transform="translate(793,440)"/>
<path d="M0 0 C0.33 0 0.66 0 1 0 C1.83930594 9.02253886 2.12224626 17.9401941 2 27 C1.01 26.67 0.02 26.34 -1 26 C-2.33495118 21.99514647 -2.18416695 18.31797418 -2.1875 14.125 C-2.19974609 13.32191406 -2.21199219 12.51882813 -2.22460938 11.69140625 C-2.23536801 7.33774351 -2.03066307 3.9650101 0 0 Z " fill="#447194" transform="translate(294,524)"/>
<path d="M0 0 C0.33 0 0.66 0 1 0 C1.34548714 6.33393082 0.29342747 11.10261508 -2 17 C-3.32 16.67 -4.64 16.34 -6 16 C-6.4226988 9.87086741 -6.00963916 6.95308367 -2 2 C-1.34 1.34 -0.68 0.68 0 0 Z " fill="#30506A" transform="translate(797,458)"/>
<path d="M0 0 C-3.23265489 1.74066032 -6.50674386 2.88215803 -10 4 C-10.928125 4.37125 -11.85625 4.7425 -12.8125 5.125 C-16.84163494 6.23103704 -20.85496099 6.73426405 -25 6 C-26.03289432 5.03401381 -27.03767712 4.03630819 -28 3 C-24.83486722 2.48996146 -21.66769716 1.99384043 -18.5 1.5 C-17.613125 1.35691406 -16.72625 1.21382813 -15.8125 1.06640625 C-10.46923901 0.24134389 -5.40603486 -0.15157107 0 0 Z " fill="#537C9E" transform="translate(910,434)"/>
<path d="M0 0 C6.93 0 13.86 0 21 0 C20.01 0.495 20.01 0.495 19 1 C19 1.66 19 2.32 19 3 C16.04200997 4.47899501 13.3516424 4.13178874 10.0625 4.125 C8.81597656 4.12757813 7.56945312 4.13015625 6.28515625 4.1328125 C3 4 3 4 0 3 C0 2.01 0 1.02 0 0 Z " fill="#22425B" transform="translate(534,648)"/>
<path d="M0 0 C0.66 0.33 1.32 0.66 2 1 C-5.44189526 10.02892768 -5.44189526 10.02892768 -10 12 C-11.32 12 -12.64 12 -14 12 C-12.59844241 8.66227007 -11.0490314 6.98250943 -8.125 4.875 C-7.44695313 4.37742187 -6.76890625 3.87984375 -6.0703125 3.3671875 C-4.08070405 2.05329513 -2.21061415 0.89719486 0 0 Z " fill="#E8EEF0" transform="translate(815,596)"/>
<path d="M0 0 C0.33 0 0.66 0 1 0 C1.46926495 5.45879639 -0.64016883 7.64973826 -3.98828125 11.7109375 C-11.8004827 20.6001609 -11.8004827 20.6001609 -16 22 C-14.54903068 18.70570742 -12.70799926 16.42769689 -10.25 13.8125 C-6.76084365 9.98650341 -3.87776244 6.0340355 -1.12890625 1.65234375 C-0.75636719 1.10707031 -0.38382812 0.56179688 0 0 Z " fill="#E4EAEC" transform="translate(508,526)"/>
<path d="M0 0 C0.66 0 1.32 0 2 0 C3.93703061 5.81109182 3.21715636 12.06636277 2 18 C1.67 17.01 1.34 16.02 1 15 C0.01 15.33 -0.98 15.66 -2 16 C-2.05423638 14.08364783 -2.09289963 12.16685075 -2.125 10.25 C-2.14820313 9.18265625 -2.17140625 8.1153125 -2.1953125 7.015625 C-2.00487687 4.07529894 -1.52670104 2.47638122 0 0 Z " fill="#34586F" transform="translate(844,461)"/>
<path d="M0 0 C-0.1328125 1.80078125 -0.1328125 1.80078125 -1 4 C-3.6171875 5.66796875 -3.6171875 5.66796875 -6.875 7.1875 C-8.47988281 7.95126953 -8.47988281 7.95126953 -10.1171875 8.73046875 C-13 10 -13 10 -16 11 C-14.58590577 7.60470083 -12.97643772 5.94087183 -10 3.8125 C-8.948125 3.04873047 -8.948125 3.04873047 -7.875 2.26953125 C-4.77518936 0.17070113 -4.0021248 0 0 0 Z " fill="#EFF3F4" transform="translate(808,583)"/>
<path d="M0 0 C0.66796875 1.77734375 0.66796875 1.77734375 1 4 C-2.1032528 9.37977029 -7.67412929 13.70159909 -12.1875 17.9375 C-12.69821045 18.42226807 -13.2089209 18.90703613 -13.73510742 19.40649414 C-16.36014257 21.81295493 -18.3864838 23.59466525 -22 24 C-19.37575922 21.29623678 -16.77969499 18.82031836 -13.8125 16.5 C-8.29254817 11.8837571 -4.24499371 5.75679228 0 0 Z " fill="#D1D9DD" transform="translate(914,528)"/>
<path d="M0 0 C0.91577987 2.47260564 1.05316231 3.79798323 0.375 6.375 C-2.64764885 12.14551143 -6.96945786 16.02236203 -12 20 C-12.66 19.67 -13.32 19.34 -14 19 C-12.86111328 17.57107422 -12.86111328 17.57107422 -11.69921875 16.11328125 C-10.69515848 14.84647623 -9.6912608 13.57954232 -8.6875 12.3125 C-8.18798828 11.68666016 -7.68847656 11.06082031 -7.17382812 10.41601562 C-4.52195158 7.06165522 -2.09641651 3.74206769 0 0 Z " fill="#F5F8F9" transform="translate(366,526)"/>
<path d="M0 0 C0.33 0 0.66 0 1 0 C1 3.3 1 6.6 1 10 C2.65 9.34 4.3 8.68 6 8 C5.38454214 10.31543614 4.75821964 12.62692196 4.125 14.9375 C3.95097656 15.59685547 3.77695312 16.25621094 3.59765625 16.93554688 C3.12523763 18.641503 2.56784972 20.32339261 2 22 C1.34 22.33 0.68 22.66 0 23 C0 15.41 0 7.82 0 0 Z " fill="#EAF1F2" transform="translate(313,435)"/>
<path d="M0 0 C0.72832031 -0.020625 1.45664063 -0.04125 2.20703125 -0.0625 C4.3203125 -0.078125 4.3203125 -0.078125 7.875 0.25 C8.535 1.24 9.195 2.23 9.875 3.25 C6.77091193 3.30807043 3.6669636 3.34361914 0.5625 3.375 C-0.75911133 3.40013672 -0.75911133 3.40013672 -2.10742188 3.42578125 C-2.95498047 3.43222656 -3.80253906 3.43867187 -4.67578125 3.4453125 C-5.45606689 3.45578613 -6.23635254 3.46625977 -7.0402832 3.47705078 C-9.125 3.25 -9.125 3.25 -12.125 1.25 C-8.15714503 -0.03799481 -4.12714611 0.02953235 0 0 Z " fill="#305169" transform="translate(238.125,522.75)"/>
<path d="M0 0 C0.77926219 2.53260212 0.99118426 4.44078677 0.9375 7.125 C0.67134345 10.13239112 0.67134345 10.13239112 3 12 C3.21358801 15.84458427 3.17881287 19.31620978 2 23 C2.66 23.33 3.32 23.66 4 24 C3.01 24 2.02 24 1 24 C-0.84719408 19.29075026 -1.24271251 15.35691551 -1.1875 10.3125 C-1.17783203 8.35763672 -1.17783203 8.35763672 -1.16796875 6.36328125 C-1 3 -1 3 0 0 Z " fill="#5683A5" transform="translate(493,594)"/>
<path d="M0 0 C0.33 0 0.66 0 1 0 C1.33 1.65 1.66 3.3 2 5 C2.66 4.67 3.32 4.34 4 4 C4 6.64 4 9.28 4 12 C1.66666667 12 -0.66666667 12 -3 12 C-2.01 8.04 -1.02 4.08 0 0 Z " fill="#5382A5" transform="translate(300,500)"/>
<path d="M0 0 C0.66 0 1.32 0 2 0 C2.92608567 2.77825702 3.32325991 5.10329513 3.625 8 C3.72039062 8.86625 3.81578125 9.7325 3.9140625 10.625 C4 13 4 13 3 16 C2.01 16 1.02 16 0 16 C0 10.72 0 5.44 0 0 Z " fill="#22445D" transform="translate(168,568)"/>
<path d="M0 0 C1.41791408 0.45445964 2.83428046 0.91374944 4.25 1.375 C5.43335938 1.75785156 5.43335938 1.75785156 6.640625 2.1484375 C8.86627958 2.95173667 10.90931672 3.89711662 13 5 C12.360625 5.268125 11.72125 5.53625 11.0625 5.8125 C8.66868314 6.88667752 8.66868314 6.88667752 8 10 C3.92236229 7.13463296 1.97322935 4.56958375 0 0 Z " fill="#3B5B75" transform="translate(659,550)"/>
<path d="M0 0 C0.76570313 0.23009766 0.76570313 0.23009766 1.546875 0.46484375 C4.7749338 1.16905403 7.95418001 1.34888204 11.25 1.5625 C12.51328125 1.64628906 13.7765625 1.73007812 15.078125 1.81640625 C16.04234375 1.87699219 17.0065625 1.93757812 18 2 C18 2.33 18 2.66 18 3 C12.555 3.495 12.555 3.495 7 4 C6.67 5.32 6.34 6.64 6 8 C2.83884224 6.63016497 2.0072908 6.0109362 0 3 C0 2.01 0 1.02 0 0 Z " fill="#30536F" transform="translate(444,561)"/>
<path d="M0 0 C0.66 0 1.32 0 2 0 C1.86722656 0.59167969 1.73445313 1.18335938 1.59765625 1.79296875 C0.68994822 5.85446525 -0.2091113 9.91374171 -1 14 C-1.66 14 -2.32 14 -3 14 C-4.07511878 9.60993163 -4.3257941 6.95377757 -2.0625 3.0625 C-1.381875 2.051875 -0.70125 1.04125 0 0 Z " fill="#35536B" transform="translate(385,460)"/>
<path d="M0 0 C0.33 0.99 0.66 1.98 1 3 C0.67 3.66 0.34 4.32 0 5 C0.99 5.33 1.98 5.66 3 6 C1.35 7.65 -0.3 9.3 -2 11 C-2.33 10.34 -2.66 9.68 -3 9 C-3.33 9.99 -3.66 10.98 -4 12 C-4.66 12 -5.32 12 -6 12 C-4.81819916 6.97734643 -3.55007718 3.9050849 0 0 Z " fill="#E1E9EA" transform="translate(782,443)"/>
<path d="M0 0 C0.33 0 0.66 0 1 0 C2.29271095 5.89073674 1.53786235 9.80023878 -0.4375 15.4375 C-0.80198242 16.53481445 -0.80198242 16.53481445 -1.17382812 17.65429688 C-1.76928729 19.44067437 -2.38280164 21.22101648 -3 23 C-3.66 22.67 -4.32 22.34 -5 22 C-4.80664062 21.24976563 -4.61328125 20.49953125 -4.4140625 19.7265625 C-2.74892681 13.18142519 -1.24817824 6.63737133 0 0 Z " fill="#D4DEE1" transform="translate(312,453)"/>
<path d="M0 0 C2.475 0.99 2.475 0.99 5 2 C4.67 4.31 4.34 6.62 4 9 C2.35 8.67 0.7 8.34 -1 8 C-1.125 2.25 -1.125 2.25 0 0 Z " fill="#467294" transform="translate(324,388)"/>
<path d="M0 0 C0.66 0.66 1.32 1.32 2 2 C4.10820797 1.6814823 4.10820797 1.6814823 6 1 C2 8.57142857 2 8.57142857 -2 11 C-1.125 3.375 -1.125 3.375 0 0 Z " fill="#E0E8E8" transform="translate(901,515)"/>
<path d="M0 0 C1.8125 0.1875 1.8125 0.1875 4 1 C7 5.28571429 7 5.28571429 7 7 C4.36 7 1.72 7 -1 7 C-0.67 4.69 -0.34 2.38 0 0 Z " fill="#375771" transform="translate(121,609)"/>
<path d="M0 0 C0.99 0 1.98 0 3 0 C2.54857225 1.77260631 2.08859477 3.5430368 1.625 5.3125 C1.36976563 6.29863281 1.11453125 7.28476562 0.8515625 8.30078125 C0 11 0 11 -2 14 C-3.10643764 8.16605611 -3.27137992 5.23420787 0 0 Z " fill="#2F546E" transform="translate(765,533)"/>
<path d="M0 0 C5.61 0.33 11.22 0.66 17 1 C17 1.33 17 1.66 17 2 C16.33613281 2.03738281 15.67226563 2.07476563 14.98828125 2.11328125 C9.92963621 2.4899103 6.15819181 2.81205295 2 6 C0 3 0 3 0 0 Z " fill="#345A78" transform="translate(304,562)"/>
<path d="M0 0 C3.36591866 1.44253657 5.51047079 3.33264727 8 6 C7.34 7.32 6.68 8.64 6 10 C4.99106869 8.90398831 3.99311775 7.79786082 3 6.6875 C2.1646875 5.76517578 2.1646875 5.76517578 1.3125 4.82421875 C0 3 0 3 0 0 Z " fill="#3D5D77" transform="translate(525,550)"/>
<path d="M0 0 C0.66 0 1.32 0 2 0 C2.33 4.95 2.66 9.9 3 15 C2.01 15.33 1.02 15.66 0 16 C0 10.72 0 5.44 0 0 Z " fill="#23455E" transform="translate(912,457)"/>
<path d="M0 0 C0.721875 0.103125 1.44375 0.20625 2.1875 0.3125 C1.5 2.1875 1.5 2.1875 0.1875 4.3125 C-2.25 5.4375 -2.25 5.4375 -4.8125 6.3125 C-5.8025 6.9725 -6.7925 7.6325 -7.8125 8.3125 C-7.8125 5.3125 -7.8125 5.3125 -5.625 2.625 C-2.8125 0.3125 -2.8125 0.3125 0 0 Z " fill="#EAEFEF" transform="translate(794.8125,456.6875)"/>
<path d="M0 0 C0.66 0.66 1.32 1.32 2 2 C1.57469657 5.82773086 0.26430036 9.3756723 -1 13 C-1.33 13 -1.66 13 -2 13 C-2.2493357 11.39884424 -2.47378648 9.79379841 -2.6875 8.1875 C-2.81511719 7.29417969 -2.94273437 6.40085937 -3.07421875 5.48046875 C-3 3 -3 3 -1.51953125 1.17578125 C-1.01808594 0.78777344 -0.51664063 0.39976562 0 0 Z " fill="#2F526E" transform="translate(213,440)"/>
<path d="M0 0 C1.28284601 3.84853802 0.47918865 5.53095203 -0.96484375 9.19140625 C-2 11 -2 11 -4.6875 12.5 C-5.450625 12.665 -6.21375 12.83 -7 13 C-5.54331217 10.03216871 -3.98767914 7.13584687 -2.375 4.25 C-1.92898438 3.45078125 -1.48296875 2.6515625 -1.0234375 1.828125 C-0.68570312 1.22484375 -0.34796875 0.6215625 0 0 Z " fill="#5081A3" transform="translate(437,510)"/>
<path d="M0 0 C0.66 0.33 1.32 0.66 2 1 C2.05382106 3.62527189 2.09358313 6.24944713 2.125 8.875 C2.14175781 9.62136719 2.15851563 10.36773438 2.17578125 11.13671875 C2.1933959 13.09194461 2.10320189 15.04742021 2 17 C1.34 17.66 0.68 18.32 0 19 C-1.04507487 15.86477538 -0.96233693 14.40100423 -0.5625 11.1875 C-0.1334287 7.43037564 0.09967206 3.78753846 0 0 Z " fill="#1F3E57" transform="translate(184,519)"/>
<path d="M0 0 C0 1.65 0 3.3 0 5 C-1.98 5 -3.96 5 -6 5 C-6.33 3.68 -6.66 2.36 -7 1 C-4.53721199 -0.231394 -2.7204945 -0.07159196 0 0 Z " fill="#385971" transform="translate(224,483)"/>
<path d="M0 0 C3.96 0 7.92 0 12 0 C12 0.99 12 1.98 12 3 C7.83861737 3.08159574 4.0527516 2.98248524 0 2 C0 1.34 0 0.68 0 0 Z " fill="#1F405E" transform="translate(823,640)"/>
<path d="M0 0 C0.99 0 1.98 0 3 0 C2.67 2.31 2.34 4.62 2 7 C0.35 6.67 -1.3 6.34 -3 6 C-1.125 1.125 -1.125 1.125 0 0 Z " fill="#5383A7" transform="translate(684,573)"/>
<path d="M0 0 C1.98 0.99 1.98 0.99 4 2 C4 3.98 4 5.96 4 8 C2.68 8.33 1.36 8.66 0 9 C0 6.03 0 3.06 0 0 Z " fill="#22445C" transform="translate(904,488)"/>
<path d="M0 0 C0.66 0 1.32 0 2 0 C2.33 3.96 2.66 7.92 3 12 C2.01 12.33 1.02 12.66 0 13 C0 8.71 0 4.42 0 0 Z " fill="#20435F" transform="translate(744,584)"/>
<path d="M0 0 C0.99 0 1.98 0 3 0 C2.40075776 4.19469571 1.42500059 8.00999834 0 12 C-0.33 12 -0.66 12 -1 12 C-1.02687279 10.18757948 -1.04633715 8.37504767 -1.0625 6.5625 C-1.07410156 5.55316406 -1.08570313 4.54382813 -1.09765625 3.50390625 C-1 1 -1 1 0 0 Z " fill="#33556D" transform="translate(187,521)"/>
<path d="M0 0 C2.31 0.66 4.62 1.32 7 2 C7 2.99 7 3.98 7 5 C6.01 5.66 5.02 6.32 4 7 C0 2.25 0 2.25 0 0 Z " fill="#325573" transform="translate(641,633)"/>
<path d="M0 0 C0.99 0.495 0.99 0.495 2 1 C3.3864587 6.66137303 2.62227918 10.56059334 1 16 C0.67 16 0.34 16 0 16 C0 10.72 0 5.44 0 0 Z " fill="#4F7FA1" transform="translate(779,526)"/>
<path d="M0 0 C0.99 0.33 1.98 0.66 3 1 C3 4.3 3 7.6 3 11 C2.01 10.67 1.02 10.34 0 10 C0 6.7 0 3.4 0 0 Z " fill="#1E3F5A" transform="translate(632,520)"/>
<path d="M0 0 C-0.74250597 4.08378283 -1.82923301 8.01939223 -3 12 C-3.33 12 -3.66 12 -4 12 C-4.33 8.7 -4.66 5.4 -5 2 C-2 0 -2 0 0 0 Z " fill="#385B73" transform="translate(431,489)"/>
<path d="M0 0 C1.46726798 3.81489674 0.43336419 6.29011622 -1 10 C-1.66 10 -2.32 10 -3 10 C-4.62514468 11.45833358 -4.62514468 11.45833358 -6 13 C-4.58707905 8.1725201 -2.57025846 4.2837641 0 0 Z " fill="#DFE6E9" transform="translate(307,475)"/>
<path d="M0 0 C3.63 0 7.26 0 11 0 C11 1.65 11 3.3 11 5 C10.34 4.34 9.68 3.68 9 3 C7.845 3.020625 6.69 3.04125 5.5 3.0625 C4.345 3.041875 3.19 3.02125 2 3 C1.34 2.01 0.68 1.02 0 0 Z " fill="#38586E" transform="translate(377,387)"/>
<path d="M0 0 C0.33 0.99 0.66 1.98 1 3 C-1.31 5.31 -3.62 7.62 -6 10 C-6.33 9.01 -6.66 8.02 -7 7 C-5.0625 3.8125 -5.0625 3.8125 -3 1 C-2.01 1.33 -1.02 1.66 0 2 C0 1.34 0 0.68 0 0 Z " fill="#30506A" transform="translate(595,625)"/>
<path d="M0 0 C2 2 2 2 2.125 5.125 C2.08375 6.07375 2.0425 7.0225 2 8 C0.35 7.67 -1.3 7.34 -3 7 C-2.625 4.0625 -2.625 4.0625 -2 1 C-1.34 0.67 -0.68 0.34 0 0 Z " fill="#3D6F98" transform="translate(462,441)"/>
<path d="M0 0 C3.3 0 6.6 0 10 0 C10 0.99 10 1.98 10 3 C6.7 2.67 3.4 2.34 0 2 C0 1.34 0 0.68 0 0 Z " fill="#213F5A" transform="translate(336,568)"/>
<path d="M0 0 C2 2 2 2 2.1953125 4.1640625 C2.17210937 4.97617187 2.14890625 5.78828125 2.125 6.625 C2.10695313 7.44226563 2.08890625 8.25953125 2.0703125 9.1015625 C2.03550781 10.04128906 2.03550781 10.04128906 2 11 C1.34 11 0.68 11 0 11 C0 10.34 0 9.68 0 9 C-0.66 8.67 -1.32 8.34 -2 8 C-1.34 5.36 -0.68 2.72 0 0 Z " fill="#5B89AB" transform="translate(787,497)"/>
<path d="M0 0 C0.33 0 0.66 0 1 0 C1.02693575 2.12493141 1.04636628 4.24995912 1.0625 6.375 C1.07410156 7.55835938 1.08570313 8.74171875 1.09765625 9.9609375 C1 13 1 13 0 15 C-0.66 15 -1.32 15 -2 15 C-2.04254356 13.00045254 -2.04080783 10.99958364 -2 9 C-1.67 8.67 -1.34 8.34 -1 8 C-0.76924918 6.65252916 -0.58846937 5.29622435 -0.4375 3.9375 C-0.293125 2.638125 -0.14875 1.33875 0 0 Z " fill="#20435C" transform="translate(434,464)"/>
<path d="M0 0 C0 0.33 0 0.66 0 1 C-4.46334184 2.72293135 -8.10201231 3.22240791 -12.875 3.125 C-14.02742188 3.10695313 -15.17984375 3.08890625 -16.3671875 3.0703125 C-17.23601562 3.04710937 -18.10484375 3.02390625 -19 3 C-19 2.67 -19 2.34 -19 2 C-12.6221448 0.82706111 -6.49678438 -0.29530838 0 0 Z " fill="#759AB5" transform="translate(498,434)"/>
<path d="M0 0 C-0.639375 0.309375 -1.27875 0.61875 -1.9375 0.9375 C-3.93610821 1.8345163 -3.93610821 1.8345163 -5 3 C-11.46153846 3.35897436 -11.46153846 3.35897436 -15 1 C-9.91913204 0.15318867 -5.15171623 -0.09038099 0 0 Z " fill="#6A90AC" transform="translate(910,434)"/>
<path d="M0 0 C0.66 0 1.32 0 2 0 C2.33 3.96 2.66 7.92 3 12 C2.01 12.66 1.02 13.32 0 14 C0 9.38 0 4.76 0 0 Z " fill="#224360" transform="translate(216,416)"/>
<path d="M0 0 C-2.64 1.65 -5.28 3.3 -8 5 C-8.66 4.34 -9.32 3.68 -10 3 C-8 0 -8 0 -5.5625 -0.75 C-3 -1 -3 -1 0 0 Z " fill="#315673" transform="translate(819,594)"/>
<path d="M0 0 C3 3 3 3 3.1875 6.6875 C3.125625 7.780625 3.06375 8.87375 3 10 C2.01 10 1.02 10 0 10 C0 6.7 0 3.4 0 0 Z " fill="#1D3F57" transform="translate(608,591)"/>
<path d="M0 0 C2 3 2 3 1.625 6.1875 C1.41875 7.115625 1.2125 8.04375 1 9 C-0.98 9 -2.96 9 -5 9 C-5 8.34 -5 7.68 -5 7 C-3.68 7 -2.36 7 -1 7 C-0.67 4.69 -0.34 2.38 0 0 Z " fill="#618DAC" transform="translate(612,428)"/>
<path d="M0 0 C1.18325358 4.51353987 1.77602786 7.54494776 -0.5 11.8125 C-0.995 12.534375 -1.49 13.25625 -2 14 C-3.25127906 10.45332822 -2.72285053 8.27746562 -1.5625 4.75 C-1.27503906 3.85796875 -0.98757813 2.9659375 -0.69140625 2.046875 C-0.46324219 1.37140625 -0.23507812 0.6959375 0 0 Z " fill="#6590AE" transform="translate(324,424)"/>
<path d="M0 0 C0.66 0 1.32 0 2 0 C2 0.99 2 1.98 2 3 C2.99 3.33 3.98 3.66 5 4 C4.34 5.65 3.68 7.3 3 9 C2.01 8.67 1.02 8.34 0 8 C0 5.36 0 2.72 0 0 Z " fill="#25455E" transform="translate(136,416)"/>
<path d="M0 0 C0.99 0.33 1.98 0.66 3 1 C3.125 6.75 3.125 6.75 2 9 C1.34 9 0.68 9 0 9 C0 6.03 0 3.06 0 0 Z " fill="#1E405A" transform="translate(752,568)"/>
<path d="M0 0 C0.33 1.98 0.66 3.96 1 6 C-0.65 5.67 -2.3 5.34 -4 5 C-4.33 3.68 -4.66 2.36 -5 1 C-3 0 -3 0 0 0 Z " fill="#41739B" transform="translate(376,552)"/>
<path d="M0 0 C0.66 0 1.32 0 2 0 C1.67 2.64 1.34 5.28 1 8 C-0.32 7.67 -1.64 7.34 -3 7 C-2.38722388 4.03824877 -1.74627478 2.61941217 0 0 Z " fill="#395D78" transform="translate(773,458)"/>
<path d="M0 0 C4.62 0 9.24 0 14 0 C12.515 1.485 12.515 1.485 11 3 C8.6875 2.75 8.6875 2.75 6 2 C4.00102872 1.66055205 2.00124361 1.32578384 0 1 C0 0.67 0 0.34 0 0 Z " fill="#527D9F" transform="translate(472,437)"/>
<path d="M0 0 C0.66 0 1.32 0 2 0 C2.042721 1.66611905 2.04063832 3.33382885 2 5 C1 6 1 6 -2.0625 6.0625 C-3.5165625 6.0315625 -3.5165625 6.0315625 -5 6 C-3.38405168 3.95880212 -1.7143618 1.95927063 0 0 Z " fill="#435F70" transform="translate(659,434)"/>
<path d="M0 0 C1.21816406 0.03480469 1.21816406 0.03480469 2.4609375 0.0703125 C3.68683594 0.09738281 3.68683594 0.09738281 4.9375 0.125 C5.87722656 0.15980469 5.87722656 0.15980469 6.8359375 0.1953125 C6.8359375 1.1853125 6.8359375 2.1753125 6.8359375 3.1953125 C4.8559375 3.1953125 2.8759375 3.1953125 0.8359375 3.1953125 C0.8359375 2.5353125 0.8359375 1.8753125 0.8359375 1.1953125 C-0.8140625 1.5253125 -2.4640625 1.8553125 -4.1640625 2.1953125 C-2.1640625 0.1953125 -2.1640625 0.1953125 0 0 Z " fill="#20425B" transform="translate(667.1640625,647.8046875)"/>
<path d="M0 0 C2.64 0 5.28 0 8 0 C8.33 1.32 8.66 2.64 9 4 C4.545 3.01 4.545 3.01 0 2 C0 1.34 0 0.68 0 0 Z " fill="#1E3E5A" transform="translate(407,568)"/>
<path d="M0 0 C0.33 1.32 0.66 2.64 1 4 C0.01 4 -0.98 4 -2 4 C-4.18777466 5.9375006 -4.18777466 5.9375006 -6 8 C-6.66 7.34 -7.32 6.68 -8 6 C-5.36 4.02 -2.72 2.04 0 0 Z " fill="#24465F" transform="translate(431,543)"/>
<path d="M0 0 C0.99 0 1.98 0 3 0 C3 2.31 3 4.62 3 7 C0 6 0 6 -1.1875 3.9375 C-1.5896875 2.9784375 -1.5896875 2.9784375 -2 2 C-1.34 1.34 -0.68 0.68 0 0 Z " fill="#335873" transform="translate(363,536)"/>
<path d="M0 0 C0.66 1.32 1.32 2.64 2 4 C-0.31 5.98 -2.62 7.96 -5 10 C-5.66 9.67 -6.32 9.34 -7 9 C-4.69 6.03 -2.38 3.06 0 0 Z " fill="#D0DBDF" transform="translate(359,536)"/>
<path d="M0 0 C0 1.65 0 3.3 0 5 C-0.99 5.495 -0.99 5.495 -2 6 C-2.66 6.99 -3.32 7.98 -4 9 C-4.75 6.75 -4.75 6.75 -5 4 C-1.75675676 0 -1.75675676 0 0 0 Z " fill="#2A4A64" transform="translate(798,458)"/>
<path d="M0 0 C1.32 0.33 2.64 0.66 4 1 C2.25 3.0625 2.25 3.0625 0 5 C-2.1875 4.9375 -2.1875 4.9375 -4 4 C-4.33 3.01 -4.66 2.02 -5 1 C-2.525 1.495 -2.525 1.495 0 2 C0 1.34 0 0.68 0 0 Z " fill="#5983A0" transform="translate(786,459)"/>
<path d="M0 0 C0.33 0 0.66 0 1 0 C1.33 3.96 1.66 7.92 2 12 C1.01 12.495 1.01 12.495 0 13 C-0.19658808 11.58456585 -0.38187546 10.16755969 -0.5625 8.75 C-0.66691406 7.96109375 -0.77132813 7.1721875 -0.87890625 6.359375 C-1.00027349 3.99467126 -0.69633257 2.2488963 0 0 Z " fill="#3E6D94" transform="translate(494,594)"/>
<path d="M0 0 C2.97 0.33 5.94 0.66 9 1 C8.01 1.33 7.02 1.66 6 2 C5.67 2.66 5.34 3.32 5 4 C4.01 4.33 3.02 4.66 2 5 C1.34 3.35 0.68 1.7 0 0 Z " fill="#375A76" transform="translate(791,557)"/>
<path d="M0 0 C0.33 0.99 0.66 1.98 1 3 C-3.82142857 8.22321429 -3.82142857 8.22321429 -8 9 C-7.04270084 7.87411986 -6.08412105 6.7493285 -5.125 5.625 C-4.59132813 4.99851562 -4.05765625 4.37203125 -3.5078125 3.7265625 C-2.38567993 2.44163349 -1.20628025 1.20628025 0 0 Z " fill="#D8E3E8" transform="translate(431,539)"/>
<path d="M0 0 C0.33 0.99 0.66 1.98 1 3 C1.66 3 2.32 3 3 3 C2.34 5.64 1.68 8.28 1 11 C0.67 11 0.34 11 0 11 C-0.19406478 9.35492782 -0.38007935 7.70890406 -0.5625 6.0625 C-0.66691406 5.14597656 -0.77132812 4.22945313 -0.87890625 3.28515625 C-0.91886719 2.53105469 -0.95882812 1.77695312 -1 1 C-0.67 0.67 -0.34 0.34 0 0 Z " fill="#315670" transform="translate(835,500)"/>
<path d="M0 0 C0.66 0 1.32 0 2 0 C3.35439668 2.70879335 3.06501451 5.00933268 3 8 C2.01 8 1.02 8 0 8 C0 5.36 0 2.72 0 0 Z " fill="#234358" transform="translate(840,480)"/>
<path d="M0 0 C0.75 1.6875 0.75 1.6875 1 4 C-0.8125 6.75 -0.8125 6.75 -3 9 C-3.66 9 -4.32 9 -5 9 C-3.7508258 5.54074837 -2.32472205 2.85306797 0 0 Z " fill="#DFE4E7" transform="translate(914,528)"/>
<path d="M0 0 C6 2 6 2 8 3 C8 3.66 8 4.32 8 5 C2.06 4.01 2.06 4.01 -4 3 C-2.68 2.67 -1.36 2.34 0 2 C0 1.34 0 0.68 0 0 Z " fill="#546F83" transform="translate(225,387)"/>
<path d="M0 0 C0.66 0.33 1.32 0.66 2 1 C0.75453595 4.73639216 -0.63404953 5.18756513 -4 7 C-3.6875 4.625 -3.6875 4.625 -3 2 C-2.01 1.34 -1.02 0.68 0 0 Z " fill="#244860" transform="translate(361,539)"/>
<path d="M0 0 C0.33 0.99 0.66 1.98 1 3 C-5.625 3.25 -5.625 3.25 -9 1 C-5.92677456 0.08941469 -3.19902639 -0.08886184 0 0 Z " fill="#4A697D" transform="translate(235,523)"/>
<path d="M0 0 C0.99 0 1.98 0 3 0 C3 2.31 3 4.62 3 7 C2.01 6.67 1.02 6.34 0 6 C0 4.02 0 2.04 0 0 Z " fill="#1E4158" transform="translate(832,506)"/>
<path d="M0 0 C0.66 0 1.32 0 2 0 C1.67 2.31 1.34 4.62 1 7 C0.01 6.67 -0.98 6.34 -2 6 C-1.125 1.125 -1.125 1.125 0 0 Z " fill="#467499" transform="translate(918,496)"/>
<path d="M0 0 C0.66 0.66 1.32 1.32 2 2 C0.02 4.31 -1.96 6.62 -4 9 C-4.33 7.68 -4.66 6.36 -5 5 C-2.5625 2.25 -2.5625 2.25 0 0 Z " fill="#3A5A73" transform="translate(575,472)"/>
<path d="M0 0 C0.66 0.66 1.32 1.32 2 2 C1.01 3.485 1.01 3.485 0 5 C-0.38499891 6.65549531 -0.72793135 8.3222433 -1 10 C-2.57035335 7.50590939 -3.0274945 6.29556584 -2.75 3.3125 C-2.5025 2.549375 -2.255 1.78625 -2 1 C-1.34 0.67 -0.68 0.34 0 0 Z " fill="#D2DCDF" transform="translate(371,449)"/>
<path d="M0 0 C0 0.99 0 1.98 0 3 C-2.64 3 -5.28 3 -8 3 C-5.53387212 -0.1151089 -3.89156016 -0.31553191 0 0 Z " fill="#427096" transform="translate(491,437)"/>
<path d="M0 0 C0.99 0.495 0.99 0.495 2 1 C2.4140625 3.06640625 2.4140625 3.06640625 2.625 5.5625 C2.69976562 6.38878906 2.77453125 7.21507812 2.8515625 8.06640625 C2.92503906 9.02353516 2.92503906 9.02353516 3 10 C2.34 10 1.68 10 1 10 C0.67 6.7 0.34 3.4 0 0 Z " fill="#203F56" transform="translate(376,407)"/>
<path d="M0 0 C1.70884005 1.62339805 3.37446717 3.29319053 5 5 C5 5.66 5 6.32 5 7 C2.08482708 5.92598892 0.22189824 5.22189824 -2 3 C-1.34 2.01 -0.68 1.02 0 0 Z " fill="#3B5971" transform="translate(248,394)"/>
<path d="M0 0 C0.33 1.32 0.66 2.64 1 4 C-1.31 3.67 -3.62 3.34 -6 3 C-6 2.34 -6 1.68 -6 1 C-4.02 0.67 -2.04 0.34 0 0 Z " fill="#224258" transform="translate(386,389)"/>
<path d="M0 0 C2 0.6875 2 0.6875 4 2.6875 C0.7 3.0175 -2.6 3.3475 -6 3.6875 C-5.34 3.3575 -4.68 3.0275 -4 2.6875 C-4 2.0275 -4 1.3675 -4 0.6875 C-2 -0.3125 -2 -0.3125 0 0 Z " fill="#325066" transform="translate(557,648.3125)"/>
<path d="M0 0 C2.475 0.495 2.475 0.495 5 1 C4.67 2.65 4.34 4.3 4 6 C2.62437146 4.71034824 1.29233607 3.37310707 0 2 C0 1.34 0 0.68 0 0 Z " fill="#33546F" transform="translate(780,630)"/>
<path d="M0 0 C0.66 0 1.32 0 2 0 C1.67 1.65 1.34 3.3 1 5 C-0.32 5.33 -1.64 5.66 -3 6 C-3.33 5.01 -3.66 4.02 -4 3 C-3.01 2.67 -2.02 2.34 -1 2 C-0.67 1.34 -0.34 0.68 0 0 Z " fill="#23415B" transform="translate(596,621)"/>
<path d="M0 0 C1.485 0.99 1.485 0.99 3 2 C2.67 3.98 2.34 5.96 2 8 C1.01 7.67 0.02 7.34 -1 7 C-0.67 4.69 -0.34 2.38 0 0 Z " fill="#20435B" transform="translate(616,576)"/>
<path d="M0 0 C0.33 0 0.66 0 1 0 C1.33 4.29 1.66 8.58 2 13 C0.68 12.67 -0.64 12.34 -2 12 C-1.34 8.04 -0.68 4.08 0 0 Z " fill="#315A7A" transform="translate(196,485)"/>
<path d="M0 0 C0.99 0 1.98 0 3 0 C3 1.98 3 3.96 3 6 C2.01 6 1.02 6 0 6 C0 4.02 0 2.04 0 0 Z " fill="#416E92" transform="translate(597,480)"/>
<path d="M0 0 C2.56687367 3.8503105 1.83288724 5.58569763 1 10 C0.34 10 -0.32 10 -1 10 C-1.125 2.25 -1.125 2.25 0 0 Z " fill="#1D3D56" transform="translate(750,463)"/>
<path d="M0 0 C0.99 0 1.98 0 3 0 C2.74438677 2.3431213 2.40729228 4.67843403 2 7 C1.01 7.495 1.01 7.495 0 8 C-0.38063221 5.6739143 -0.71269945 3.33944736 -1 1 C-0.67 0.67 -0.34 0.34 0 0 Z " fill="#264459" transform="translate(505,455)"/>
<path d="M0 0 C1.65 1.65 3.3 3.3 5 5 C4.01 5.99 3.02 6.98 2 8 C1.67 6.35 1.34 4.7 1 3 C0.34 3 -0.32 3 -1 3 C-0.67 2.01 -0.34 1.02 0 0 Z " fill="#1F4256" transform="translate(919,534)"/>
<path d="M0 0 C0.33 1.32 0.66 2.64 1 4 C-1.22189824 6.22189824 -3.08482708 6.92598892 -6 8 C-4.02 5.36 -2.04 2.72 0 0 Z " fill="#5484A6" transform="translate(844,516)"/>
<path d="M0 0 C0.33 0 0.66 0 1 0 C1.33 2.64 1.66 5.28 2 8 C1.01 8 0.02 8 -1 8 C-1.04241723 5.66705225 -1.04092937 3.33297433 -1 1 C-0.67 0.67 -0.34 0.34 0 0 Z " fill="#3F7097" transform="translate(446,488)"/>
<path d="M0 0 C0.66 0.33 1.32 0.66 2 1 C1.34 2.98 0.68 4.96 0 7 C-0.66 7 -1.32 7 -2 7 C-2 5.02 -2 3.04 -2 1 C-1.34 0.67 -0.68 0.34 0 0 Z " fill="#608CAD" transform="translate(795,474)"/>
<path d="M0 0 C2.31 0.33 4.62 0.66 7 1 C6.67 1.66 6.34 2.32 6 3 C4.02 3 2.04 3 0 3 C0 2.01 0 1.02 0 0 Z " fill="#3E7099" transform="translate(737,477)"/>
<path d="M0 0 C0.99 0.33 1.98 0.66 3 1 C3 1.99 3 2.98 3 4 C0.03 3.505 0.03 3.505 -3 3 C-2.01 2.01 -1.02 1.02 0 0 Z " fill="#395A74" transform="translate(799,642)"/>
<path d="M0 0 C1.65 0 3.3 0 5 0 C4.67 1.65 4.34 3.3 4 5 C3.01 5 2.02 5 1 5 C0.67 3.35 0.34 1.7 0 0 Z " fill="#204059" transform="translate(856,616)"/>
<path d="M0 0 C1.98 0 3.96 0 6 0 C6 0.99 6 1.98 6 3 C4.35 3 2.7 3 1 3 C0.67 2.01 0.34 1.02 0 0 Z " fill="#203F59" transform="translate(480,568)"/>
<path d="M0 0 C0.99 0.33 1.98 0.66 3 1 C0.42215154 3.64752004 -1.91648098 5.94432065 -5 8 C-3.62845496 5.04590299 -2.01136276 2.55991624 0 0 Z " fill="#DEE3E0" transform="translate(515,543)"/>
<path d="M0 0 C0.93065133 2.60582371 1.14917407 3.64198224 0.0625 6.25 C-0.4634375 7.11625 -0.4634375 7.11625 -1 8 C-1.99 8 -2.98 8 -4 8 C-2.87548273 5.0280615 -1.77706209 2.66559313 0 0 Z " fill="#D8E3E8" transform="translate(366,526)"/>
<path d="M0 0 C3.26954202 0.56371414 4.82575883 1.49962266 7 4 C6.34 4.66 5.68 5.32 5 6 C3.35 4.02 1.7 2.04 0 0 Z " fill="#32536C" transform="translate(211,514)"/>
<path d="M0 0 C2.97 0 5.94 0 9 0 C9 0.99 9 1.98 9 3 C2.84765625 2.4140625 2.84765625 2.4140625 1 2 C0.67 1.34 0.34 0.68 0 0 Z " fill="#204360" transform="translate(639,485)"/>
<path d="M0 0 C0.33 1.32 0.66 2.64 1 4 C-2.63 3.34 -6.26 2.68 -10 2 C-10 1.67 -10 1.34 -10 1 C-2.25 0 -2.25 0 0 0 Z " fill="#5F819A" transform="translate(606,462)"/>
</svg>
